%TF.GenerationSoftware,KiCad,Pcbnew,7.0.2*%
%TF.CreationDate,2023-05-29T18:28:01+05:30*%
%TF.ProjectId,_autosave-STM32,5f617574-6f73-4617-9665-2d53544d3332,rev?*%
%TF.SameCoordinates,Original*%
%TF.FileFunction,Copper,L1,Top*%
%TF.FilePolarity,Positive*%
%FSLAX46Y46*%
G04 Gerber Fmt 4.6, Leading zero omitted, Abs format (unit mm)*
G04 Created by KiCad (PCBNEW 7.0.2) date 2023-05-29 18:28:01*
%MOMM*%
%LPD*%
G01*
G04 APERTURE LIST*
G04 Aperture macros list*
%AMRoundRect*
0 Rectangle with rounded corners*
0 $1 Rounding radius*
0 $2 $3 $4 $5 $6 $7 $8 $9 X,Y pos of 4 corners*
0 Add a 4 corners polygon primitive as box body*
4,1,4,$2,$3,$4,$5,$6,$7,$8,$9,$2,$3,0*
0 Add four circle primitives for the rounded corners*
1,1,$1+$1,$2,$3*
1,1,$1+$1,$4,$5*
1,1,$1+$1,$6,$7*
1,1,$1+$1,$8,$9*
0 Add four rect primitives between the rounded corners*
20,1,$1+$1,$2,$3,$4,$5,0*
20,1,$1+$1,$4,$5,$6,$7,0*
20,1,$1+$1,$6,$7,$8,$9,0*
20,1,$1+$1,$8,$9,$2,$3,0*%
G04 Aperture macros list end*
%TA.AperFunction,NonConductor*%
%ADD10C,0.200000*%
%TD*%
%TA.AperFunction,SMDPad,CuDef*%
%ADD11RoundRect,0.140000X0.170000X-0.140000X0.170000X0.140000X-0.170000X0.140000X-0.170000X-0.140000X0*%
%TD*%
%TA.AperFunction,SMDPad,CuDef*%
%ADD12RoundRect,0.075000X-0.700000X-0.075000X0.700000X-0.075000X0.700000X0.075000X-0.700000X0.075000X0*%
%TD*%
%TA.AperFunction,SMDPad,CuDef*%
%ADD13RoundRect,0.075000X-0.075000X-0.700000X0.075000X-0.700000X0.075000X0.700000X-0.075000X0.700000X0*%
%TD*%
%TA.AperFunction,SMDPad,CuDef*%
%ADD14RoundRect,0.150000X0.512500X0.150000X-0.512500X0.150000X-0.512500X-0.150000X0.512500X-0.150000X0*%
%TD*%
%TA.AperFunction,ComponentPad*%
%ADD15C,0.900000*%
%TD*%
%TA.AperFunction,ComponentPad*%
%ADD16C,8.600000*%
%TD*%
%TA.AperFunction,SMDPad,CuDef*%
%ADD17RoundRect,0.200000X0.275000X-0.200000X0.275000X0.200000X-0.275000X0.200000X-0.275000X-0.200000X0*%
%TD*%
%TA.AperFunction,SMDPad,CuDef*%
%ADD18RoundRect,0.225000X-0.250000X0.225000X-0.250000X-0.225000X0.250000X-0.225000X0.250000X0.225000X0*%
%TD*%
%TA.AperFunction,SMDPad,CuDef*%
%ADD19RoundRect,0.225000X0.250000X-0.225000X0.250000X0.225000X-0.250000X0.225000X-0.250000X-0.225000X0*%
%TD*%
%TA.AperFunction,SMDPad,CuDef*%
%ADD20RoundRect,0.200000X-0.275000X0.200000X-0.275000X-0.200000X0.275000X-0.200000X0.275000X0.200000X0*%
%TD*%
%TA.AperFunction,SMDPad,CuDef*%
%ADD21R,1.200000X1.400000*%
%TD*%
%TA.AperFunction,SMDPad,CuDef*%
%ADD22RoundRect,0.225000X0.225000X0.250000X-0.225000X0.250000X-0.225000X-0.250000X0.225000X-0.250000X0*%
%TD*%
%TA.AperFunction,SMDPad,CuDef*%
%ADD23RoundRect,0.150000X-0.150000X0.587500X-0.150000X-0.587500X0.150000X-0.587500X0.150000X0.587500X0*%
%TD*%
%TA.AperFunction,ComponentPad*%
%ADD24R,1.300000X1.300000*%
%TD*%
%TA.AperFunction,ComponentPad*%
%ADD25C,1.300000*%
%TD*%
%TA.AperFunction,ComponentPad*%
%ADD26O,2.900000X1.900000*%
%TD*%
%TA.AperFunction,ComponentPad*%
%ADD27O,1.900000X2.900000*%
%TD*%
%TA.AperFunction,SMDPad,CuDef*%
%ADD28RoundRect,0.135000X0.135000X0.185000X-0.135000X0.185000X-0.135000X-0.185000X0.135000X-0.185000X0*%
%TD*%
%TA.AperFunction,SMDPad,CuDef*%
%ADD29R,0.800000X1.000000*%
%TD*%
%TA.AperFunction,SMDPad,CuDef*%
%ADD30R,1.500000X0.700000*%
%TD*%
%TA.AperFunction,SMDPad,CuDef*%
%ADD31RoundRect,0.218750X0.256250X-0.218750X0.256250X0.218750X-0.256250X0.218750X-0.256250X-0.218750X0*%
%TD*%
%TA.AperFunction,SMDPad,CuDef*%
%ADD32RoundRect,0.135000X-0.135000X-0.185000X0.135000X-0.185000X0.135000X0.185000X-0.135000X0.185000X0*%
%TD*%
%TA.AperFunction,SMDPad,CuDef*%
%ADD33RoundRect,0.200000X-0.200000X-0.275000X0.200000X-0.275000X0.200000X0.275000X-0.200000X0.275000X0*%
%TD*%
%TA.AperFunction,SMDPad,CuDef*%
%ADD34RoundRect,0.150000X-0.150000X0.512500X-0.150000X-0.512500X0.150000X-0.512500X0.150000X0.512500X0*%
%TD*%
%TA.AperFunction,SMDPad,CuDef*%
%ADD35RoundRect,0.225000X-0.225000X-0.250000X0.225000X-0.250000X0.225000X0.250000X-0.225000X0.250000X0*%
%TD*%
%TA.AperFunction,SMDPad,CuDef*%
%ADD36RoundRect,0.140000X0.140000X0.170000X-0.140000X0.170000X-0.140000X-0.170000X0.140000X-0.170000X0*%
%TD*%
%TA.AperFunction,SMDPad,CuDef*%
%ADD37RoundRect,0.250000X0.375000X0.625000X-0.375000X0.625000X-0.375000X-0.625000X0.375000X-0.625000X0*%
%TD*%
%TA.AperFunction,SMDPad,CuDef*%
%ADD38RoundRect,0.140000X-0.140000X-0.170000X0.140000X-0.170000X0.140000X0.170000X-0.140000X0.170000X0*%
%TD*%
%TA.AperFunction,SMDPad,CuDef*%
%ADD39R,0.750000X2.100000*%
%TD*%
%TA.AperFunction,SMDPad,CuDef*%
%ADD40RoundRect,0.250000X-0.325000X-0.650000X0.325000X-0.650000X0.325000X0.650000X-0.325000X0.650000X0*%
%TD*%
%TA.AperFunction,SMDPad,CuDef*%
%ADD41RoundRect,0.225000X-0.225000X-0.375000X0.225000X-0.375000X0.225000X0.375000X-0.225000X0.375000X0*%
%TD*%
%TA.AperFunction,SMDPad,CuDef*%
%ADD42RoundRect,0.218750X0.218750X0.256250X-0.218750X0.256250X-0.218750X-0.256250X0.218750X-0.256250X0*%
%TD*%
%TA.AperFunction,ComponentPad*%
%ADD43RoundRect,0.200000X-0.200000X-0.450000X0.200000X-0.450000X0.200000X0.450000X-0.200000X0.450000X0*%
%TD*%
%TA.AperFunction,ComponentPad*%
%ADD44O,0.800000X1.300000*%
%TD*%
%TA.AperFunction,SMDPad,CuDef*%
%ADD45RoundRect,0.243750X-0.456250X0.243750X-0.456250X-0.243750X0.456250X-0.243750X0.456250X0.243750X0*%
%TD*%
%TA.AperFunction,SMDPad,CuDef*%
%ADD46R,2.500000X1.900000*%
%TD*%
%TA.AperFunction,ComponentPad*%
%ADD47R,2.400000X2.400000*%
%TD*%
%TA.AperFunction,ComponentPad*%
%ADD48C,2.400000*%
%TD*%
%TA.AperFunction,SMDPad,CuDef*%
%ADD49RoundRect,0.147500X-0.147500X-0.172500X0.147500X-0.172500X0.147500X0.172500X-0.147500X0.172500X0*%
%TD*%
%TA.AperFunction,ComponentPad*%
%ADD50RoundRect,0.200000X0.200000X0.450000X-0.200000X0.450000X-0.200000X-0.450000X0.200000X-0.450000X0*%
%TD*%
%TA.AperFunction,SMDPad,CuDef*%
%ADD51RoundRect,0.225000X0.375000X-0.225000X0.375000X0.225000X-0.375000X0.225000X-0.375000X-0.225000X0*%
%TD*%
%TA.AperFunction,ViaPad*%
%ADD52C,0.300000*%
%TD*%
%TA.AperFunction,ViaPad*%
%ADD53C,0.600000*%
%TD*%
%TA.AperFunction,Conductor*%
%ADD54C,0.100000*%
%TD*%
%TA.AperFunction,Conductor*%
%ADD55C,1.000000*%
%TD*%
%TA.AperFunction,Conductor*%
%ADD56C,0.250000*%
%TD*%
%TA.AperFunction,Conductor*%
%ADD57C,0.200000*%
%TD*%
G04 APERTURE END LIST*
D10*
X111760000Y-66040000D02*
X157480000Y-66040000D01*
X165100000Y-73660000D02*
X165100000Y-116840000D01*
X157480000Y-124460000D02*
G75*
G03*
X165100000Y-116840000I0J7620000D01*
G01*
X111760000Y-66040000D02*
G75*
G03*
X104140000Y-73660000I0J-7620000D01*
G01*
X104140000Y-116840000D02*
G75*
G03*
X111760000Y-124460000I7620000J0D01*
G01*
X165100000Y-73660000D02*
G75*
G03*
X157480000Y-66040000I-7620000J0D01*
G01*
X157480000Y-124460000D02*
X111760000Y-124460000D01*
X104140000Y-116840000D02*
X104140000Y-73660000D01*
D11*
%TO.P,C4,1*%
%TO.N,+3.3V*%
X116840000Y-87320000D03*
%TO.P,C4,2*%
%TO.N,GND*%
X116840000Y-86360000D03*
%TD*%
D12*
%TO.P,U1,1,VBAT*%
%TO.N,+3.3V*%
X120115000Y-87095000D03*
%TO.P,U1,2,PC13*%
%TO.N,unconnected-(U1-PC13-Pad2)*%
X120115000Y-87595000D03*
%TO.P,U1,3,PC14*%
%TO.N,unconnected-(U1-PC14-Pad3)*%
X120115000Y-88095000D03*
%TO.P,U1,4,PC15*%
%TO.N,unconnected-(U1-PC15-Pad4)*%
X120115000Y-88595000D03*
%TO.P,U1,5,PH0*%
%TO.N,HSE_IN*%
X120115000Y-89095000D03*
%TO.P,U1,6,PH1*%
%TO.N,HSE_OUT*%
X120115000Y-89595000D03*
%TO.P,U1,7,NRST*%
%TO.N,NRST*%
X120115000Y-90095000D03*
%TO.P,U1,8,PC0*%
%TO.N,unconnected-(U1-PC0-Pad8)*%
X120115000Y-90595000D03*
%TO.P,U1,9,PC1*%
%TO.N,unconnected-(U1-PC1-Pad9)*%
X120115000Y-91095000D03*
%TO.P,U1,10,PC2*%
%TO.N,unconnected-(U1-PC2-Pad10)*%
X120115000Y-91595000D03*
%TO.P,U1,11,PC3*%
%TO.N,unconnected-(U1-PC3-Pad11)*%
X120115000Y-92095000D03*
%TO.P,U1,12,VSSA*%
%TO.N,GND*%
X120115000Y-92595000D03*
%TO.P,U1,13,VDDA*%
%TO.N,+3.3VA*%
X120115000Y-93095000D03*
%TO.P,U1,14,PA0*%
%TO.N,unconnected-(U1-PA0-Pad14)*%
X120115000Y-93595000D03*
%TO.P,U1,15,PA1*%
%TO.N,unconnected-(U1-PA1-Pad15)*%
X120115000Y-94095000D03*
%TO.P,U1,16,PA2*%
%TO.N,LED_STATUS*%
X120115000Y-94595000D03*
D13*
%TO.P,U1,17,PA3*%
%TO.N,unconnected-(U1-PA3-Pad17)*%
X122040000Y-96520000D03*
%TO.P,U1,18,VSS*%
%TO.N,GND*%
X122540000Y-96520000D03*
%TO.P,U1,19,VDD*%
%TO.N,+3.3V*%
X123040000Y-96520000D03*
%TO.P,U1,20,PA4*%
%TO.N,unconnected-(U1-PA4-Pad20)*%
X123540000Y-96520000D03*
%TO.P,U1,21,PA5*%
%TO.N,unconnected-(U1-PA5-Pad21)*%
X124040000Y-96520000D03*
%TO.P,U1,22,PA6*%
%TO.N,unconnected-(U1-PA6-Pad22)*%
X124540000Y-96520000D03*
%TO.P,U1,23,PA7*%
%TO.N,unconnected-(U1-PA7-Pad23)*%
X125040000Y-96520000D03*
%TO.P,U1,24,PC4*%
%TO.N,unconnected-(U1-PC4-Pad24)*%
X125540000Y-96520000D03*
%TO.P,U1,25,PC5*%
%TO.N,unconnected-(U1-PC5-Pad25)*%
X126040000Y-96520000D03*
%TO.P,U1,26,PB0*%
%TO.N,unconnected-(U1-PB0-Pad26)*%
X126540000Y-96520000D03*
%TO.P,U1,27,PB1*%
%TO.N,unconnected-(U1-PB1-Pad27)*%
X127040000Y-96520000D03*
%TO.P,U1,28,PB2*%
%TO.N,unconnected-(U1-PB2-Pad28)*%
X127540000Y-96520000D03*
%TO.P,U1,29,PB10*%
%TO.N,USART3_Tx*%
X128040000Y-96520000D03*
%TO.P,U1,30,PB11*%
%TO.N,USART3_Rx*%
X128540000Y-96520000D03*
%TO.P,U1,31,VCAP_1*%
%TO.N,Net-(U1-VCAP_1)*%
X129040000Y-96520000D03*
%TO.P,U1,32,VDD*%
%TO.N,+3.3V*%
X129540000Y-96520000D03*
D12*
%TO.P,U1,33,PB12*%
%TO.N,unconnected-(U1-PB12-Pad33)*%
X131465000Y-94595000D03*
%TO.P,U1,34,PB13*%
%TO.N,unconnected-(U1-PB13-Pad34)*%
X131465000Y-94095000D03*
%TO.P,U1,35,PB14*%
%TO.N,unconnected-(U1-PB14-Pad35)*%
X131465000Y-93595000D03*
%TO.P,U1,36,PB15*%
%TO.N,unconnected-(U1-PB15-Pad36)*%
X131465000Y-93095000D03*
%TO.P,U1,37,PC6*%
%TO.N,unconnected-(U1-PC6-Pad37)*%
X131465000Y-92595000D03*
%TO.P,U1,38,PC7*%
%TO.N,unconnected-(U1-PC7-Pad38)*%
X131465000Y-92095000D03*
%TO.P,U1,39,PC8*%
%TO.N,unconnected-(U1-PC8-Pad39)*%
X131465000Y-91595000D03*
%TO.P,U1,40,PC9*%
%TO.N,unconnected-(U1-PC9-Pad40)*%
X131465000Y-91095000D03*
%TO.P,U1,41,PA8*%
%TO.N,unconnected-(U1-PA8-Pad41)*%
X131465000Y-90595000D03*
%TO.P,U1,42,PA9*%
%TO.N,unconnected-(U1-PA9-Pad42)*%
X131465000Y-90095000D03*
%TO.P,U1,43,PA10*%
%TO.N,unconnected-(U1-PA10-Pad43)*%
X131465000Y-89595000D03*
%TO.P,U1,44,PA11*%
%TO.N,USB_D-*%
X131465000Y-89095000D03*
%TO.P,U1,45,PA12*%
%TO.N,USB_D+*%
X131465000Y-88595000D03*
%TO.P,U1,46,PA13*%
%TO.N,SWDIO*%
X131465000Y-88095000D03*
%TO.P,U1,47,VCAP_2*%
%TO.N,Net-(U1-VCAP_2)*%
X131465000Y-87595000D03*
%TO.P,U1,48,VDD*%
%TO.N,+3.3V*%
X131465000Y-87095000D03*
D13*
%TO.P,U1,49,PA14*%
%TO.N,SWCLK*%
X129540000Y-85170000D03*
%TO.P,U1,50,PA15*%
%TO.N,unconnected-(U1-PA15-Pad50)*%
X129040000Y-85170000D03*
%TO.P,U1,51,PC10*%
%TO.N,unconnected-(U1-PC10-Pad51)*%
X128540000Y-85170000D03*
%TO.P,U1,52,PC11*%
%TO.N,unconnected-(U1-PC11-Pad52)*%
X128040000Y-85170000D03*
%TO.P,U1,53,PC12*%
%TO.N,unconnected-(U1-PC12-Pad53)*%
X127540000Y-85170000D03*
%TO.P,U1,54,PD2*%
%TO.N,unconnected-(U1-PD2-Pad54)*%
X127040000Y-85170000D03*
%TO.P,U1,55,PB3*%
%TO.N,SWO*%
X126540000Y-85170000D03*
%TO.P,U1,56,PB4*%
%TO.N,unconnected-(U1-PB4-Pad56)*%
X126040000Y-85170000D03*
%TO.P,U1,57,PB5*%
%TO.N,unconnected-(U1-PB5-Pad57)*%
X125540000Y-85170000D03*
%TO.P,U1,58,PB6*%
%TO.N,I2C1_SCL*%
X125040000Y-85170000D03*
%TO.P,U1,59,PB7*%
%TO.N,I2C1_SDA*%
X124540000Y-85170000D03*
%TO.P,U1,60,BOOT0*%
%TO.N,BOOT0*%
X124040000Y-85170000D03*
%TO.P,U1,61,PB8*%
%TO.N,unconnected-(U1-PB8-Pad61)*%
X123540000Y-85170000D03*
%TO.P,U1,62,PB9*%
%TO.N,unconnected-(U1-PB9-Pad62)*%
X123040000Y-85170000D03*
%TO.P,U1,63,VSS*%
%TO.N,GND*%
X122540000Y-85170000D03*
%TO.P,U1,64,VDD*%
%TO.N,+3.3V*%
X122040000Y-85170000D03*
%TD*%
D11*
%TO.P,C7,1*%
%TO.N,+3.3V*%
X132080000Y-84780000D03*
%TO.P,C7,2*%
%TO.N,GND*%
X132080000Y-83820000D03*
%TD*%
%TO.P,C9,1*%
%TO.N,+3.3VA*%
X114300000Y-94940000D03*
%TO.P,C9,2*%
%TO.N,GND*%
X114300000Y-93980000D03*
%TD*%
D14*
%TO.P,U3,1,I/O1*%
%TO.N,USB_CONN_D-*%
X149860000Y-90800000D03*
%TO.P,U3,2,GND*%
%TO.N,GND*%
X149860000Y-89850000D03*
%TO.P,U3,3,I/O2*%
%TO.N,USB_CONN_D+*%
X149860000Y-88900000D03*
%TO.P,U3,4,I/O2*%
%TO.N,USB_D+*%
X147585000Y-88900000D03*
%TO.P,U3,5,VBUS*%
%TO.N,+5V*%
X147585000Y-89850000D03*
%TO.P,U3,6,I/O1*%
%TO.N,USB_D-*%
X147585000Y-90800000D03*
%TD*%
D15*
%TO.P,H4,1,1*%
%TO.N,GND*%
X108535000Y-73660000D03*
X109479581Y-71379581D03*
X109479581Y-75940419D03*
X111760000Y-70435000D03*
D16*
X111760000Y-73660000D03*
D15*
X111760000Y-76885000D03*
X114040419Y-71379581D03*
X114040419Y-75940419D03*
X114985000Y-73660000D03*
%TD*%
D17*
%TO.P,R6,1*%
%TO.N,+3.3V*%
X149860000Y-109220000D03*
%TO.P,R6,2*%
%TO.N,BUCK_FB*%
X149860000Y-107570000D03*
%TD*%
D18*
%TO.P,C14,1*%
%TO.N,BUCK_BST*%
X142240000Y-107670000D03*
%TO.P,C14,2*%
%TO.N,BUCK_SW*%
X142240000Y-109220000D03*
%TD*%
D15*
%TO.P,H2,1,1*%
%TO.N,GND*%
X154255000Y-116840000D03*
X155199581Y-114559581D03*
X155199581Y-119120419D03*
X157480000Y-113615000D03*
D16*
X157480000Y-116840000D03*
D15*
X157480000Y-120065000D03*
X159760419Y-114559581D03*
X159760419Y-119120419D03*
X160705000Y-116840000D03*
%TD*%
D19*
%TO.P,C2,1*%
%TO.N,Net-(U1-VCAP_1)*%
X134620000Y-87910000D03*
%TO.P,C2,2*%
%TO.N,GND*%
X134620000Y-86360000D03*
%TD*%
D20*
%TO.P,R7,1*%
%TO.N,BUCK_FB*%
X152400000Y-107570000D03*
%TO.P,R7,2*%
%TO.N,Net-(R7-Pad2)*%
X152400000Y-109220000D03*
%TD*%
D21*
%TO.P,Y1,1,1*%
%TO.N,HSE_IN*%
X109220000Y-89240000D03*
%TO.P,Y1,2,2*%
%TO.N,GND*%
X109220000Y-91440000D03*
%TO.P,Y1,3,3*%
%TO.N,Net-(C11-Pad1)*%
X110920000Y-91440000D03*
%TO.P,Y1,4,4*%
%TO.N,GND*%
X110920000Y-89240000D03*
%TD*%
D15*
%TO.P,H1,1,1*%
%TO.N,GND*%
X154255000Y-73660000D03*
X155199581Y-71379581D03*
X155199581Y-75940419D03*
X157480000Y-70435000D03*
D16*
X157480000Y-73660000D03*
D15*
X157480000Y-76885000D03*
X159760419Y-71379581D03*
X159760419Y-75940419D03*
X160705000Y-73660000D03*
%TD*%
D22*
%TO.P,C3,1*%
%TO.N,+3.3V*%
X118390000Y-83820000D03*
%TO.P,C3,2*%
%TO.N,GND*%
X116840000Y-83820000D03*
%TD*%
D23*
%TO.P,Q1,1,G*%
%TO.N,GND*%
X149220000Y-99060000D03*
%TO.P,Q1,2,S*%
%TO.N,Net-(D3-K)*%
X147320000Y-99060000D03*
%TO.P,Q1,3,D*%
%TO.N,+12V*%
X148270000Y-100935000D03*
%TD*%
D24*
%TO.P,J5,1,VBUS*%
%TO.N,+5V*%
X162405000Y-92400000D03*
D25*
%TO.P,J5,2,D-*%
%TO.N,USB_CONN_D-*%
X162405000Y-89900000D03*
%TO.P,J5,3,D+*%
%TO.N,USB_CONN_D+*%
X162405000Y-87900000D03*
%TO.P,J5,4,ID*%
%TO.N,unconnected-(J5-ID-Pad4)*%
X162405000Y-85400000D03*
D26*
%TO.P,J5,5,GND*%
%TO.N,GND*%
X161805000Y-95470000D03*
D27*
X157625000Y-88900000D03*
D26*
X161805000Y-82330000D03*
%TD*%
D28*
%TO.P,R2,1*%
%TO.N,HSE_OUT*%
X117860000Y-91440000D03*
%TO.P,R2,2*%
%TO.N,Net-(C11-Pad1)*%
X116840000Y-91440000D03*
%TD*%
D29*
%TO.P,SW1,*%
%TO.N,*%
X107790000Y-99450000D03*
X105580000Y-99450000D03*
X107790000Y-106750000D03*
X105580000Y-106750000D03*
D30*
%TO.P,SW1,1,A*%
%TO.N,+3.3V*%
X108440000Y-100850000D03*
%TO.P,SW1,2,B*%
%TO.N,Net-(SW1-B)*%
X108440000Y-103850000D03*
%TO.P,SW1,3,C*%
%TO.N,GND*%
X108440000Y-105350000D03*
%TD*%
D31*
%TO.P,D1,1,K*%
%TO.N,Net-(D1-K)*%
X119380000Y-99847500D03*
%TO.P,D1,2,A*%
%TO.N,LED_STATUS*%
X119380000Y-98272500D03*
%TD*%
D32*
%TO.P,R1,1*%
%TO.N,BOOT0*%
X120900000Y-78740000D03*
%TO.P,R1,2*%
%TO.N,Net-(SW1-B)*%
X121920000Y-78740000D03*
%TD*%
D33*
%TO.P,R11,1*%
%TO.N,Net-(D4-K)*%
X145670000Y-78740000D03*
%TO.P,R11,2*%
%TO.N,GND*%
X147320000Y-78740000D03*
%TD*%
D34*
%TO.P,U2,6,SW*%
%TO.N,BUCK_SW*%
X146680000Y-108955000D03*
%TO.P,U2,5,IN*%
%TO.N,BUCK_IN*%
X145730000Y-108955000D03*
%TO.P,U2,4,EN*%
%TO.N,BUCK_EN*%
X144780000Y-108955000D03*
%TO.P,U2,3,FB*%
%TO.N,BUCK_FB*%
X144780000Y-106680000D03*
%TO.P,U2,2,GND*%
%TO.N,GND*%
X145730000Y-106680000D03*
%TO.P,U2,1,BST*%
%TO.N,BUCK_BST*%
X146680000Y-106680000D03*
%TD*%
D35*
%TO.P,C1,1*%
%TO.N,Net-(U1-VCAP_2)*%
X130530000Y-99060000D03*
%TO.P,C1,2*%
%TO.N,USART3_Rx*%
X132080000Y-99060000D03*
%TD*%
D36*
%TO.P,C12,1*%
%TO.N,HSE_IN*%
X109220000Y-93980000D03*
%TO.P,C12,2*%
%TO.N,GND*%
X108260000Y-93980000D03*
%TD*%
%TO.P,C5,1*%
%TO.N,+3.3V*%
X122880000Y-101600000D03*
%TO.P,C5,2*%
%TO.N,GND*%
X121920000Y-101600000D03*
%TD*%
D20*
%TO.P,R3,1*%
%TO.N,GND*%
X116840000Y-97410000D03*
%TO.P,R3,2*%
%TO.N,Net-(D1-K)*%
X116840000Y-99060000D03*
%TD*%
D37*
%TO.P,F1,1*%
%TO.N,Net-(D3-K)*%
X146180000Y-96520000D03*
%TO.P,F1,2*%
%TO.N,Net-(F1-Pad2)*%
X143380000Y-96520000D03*
%TD*%
D38*
%TO.P,C11,1*%
%TO.N,Net-(C11-Pad1)*%
X109220000Y-86360000D03*
%TO.P,C11,2*%
%TO.N,GND*%
X110180000Y-86360000D03*
%TD*%
D28*
%TO.P,R9,1*%
%TO.N,unconnected-(R9-Pad1)*%
X128020000Y-78740000D03*
%TO.P,R9,2*%
%TO.N,I2C1_SCL*%
X127000000Y-78740000D03*
%TD*%
D17*
%TO.P,R5,1*%
%TO.N,BUCK_EN*%
X152400000Y-105790000D03*
%TO.P,R5,2*%
%TO.N,GND*%
X152400000Y-104140000D03*
%TD*%
D39*
%TO.P,J2,1,Pin_1*%
%TO.N,+3.3V*%
X133880000Y-69320000D03*
%TO.P,J2,2,Pin_2*%
%TO.N,SWDIO*%
X133880000Y-72920000D03*
%TO.P,J2,3,Pin_3*%
%TO.N,GND*%
X135150000Y-69320000D03*
%TO.P,J2,4,Pin_4*%
%TO.N,SWCLK*%
X135150000Y-72920000D03*
%TO.P,J2,5,Pin_5*%
%TO.N,GND*%
X136420000Y-69320000D03*
%TO.P,J2,6,Pin_6*%
%TO.N,SWO*%
X136420000Y-72920000D03*
%TO.P,J2,7,Pin_7*%
%TO.N,unconnected-(J2-Pin_7-Pad7)*%
X137690000Y-69320000D03*
%TO.P,J2,8,Pin_8*%
%TO.N,unconnected-(J2-Pin_8-Pad8)*%
X137690000Y-72920000D03*
%TO.P,J2,9,Pin_9*%
%TO.N,GND*%
X138960000Y-69320000D03*
%TO.P,J2,10,Pin_10*%
%TO.N,NRST*%
X138960000Y-72920000D03*
%TD*%
D32*
%TO.P,R10,1*%
%TO.N,unconnected-(R10-Pad1)*%
X123440000Y-81280000D03*
%TO.P,R10,2*%
%TO.N,I2C1_SDA*%
X124460000Y-81280000D03*
%TD*%
D40*
%TO.P,C15,1*%
%TO.N,+3.3V*%
X138225000Y-111760000D03*
%TO.P,C15,2*%
%TO.N,GND*%
X141175000Y-111760000D03*
%TD*%
D20*
%TO.P,R4,1*%
%TO.N,BUCK_IN*%
X149860000Y-103315000D03*
%TO.P,R4,2*%
%TO.N,BUCK_EN*%
X149860000Y-104965000D03*
%TD*%
D41*
%TO.P,D2,1,K*%
%TO.N,BUCK_SW*%
X135510000Y-101600000D03*
%TO.P,D2,2,A*%
%TO.N,GND*%
X138810000Y-101600000D03*
%TD*%
D40*
%TO.P,C16,1*%
%TO.N,+3.3V*%
X138225000Y-114300000D03*
%TO.P,C16,2*%
%TO.N,GND*%
X141175000Y-114300000D03*
%TD*%
D42*
%TO.P,D4,1,K*%
%TO.N,Net-(D4-K)*%
X145567500Y-73660000D03*
%TO.P,D4,2,A*%
%TO.N,+3.3V*%
X143992500Y-73660000D03*
%TD*%
D43*
%TO.P,J4,1,Pin_1*%
%TO.N,+3.3V*%
X124500000Y-114300000D03*
D44*
%TO.P,J4,2,Pin_2*%
%TO.N,USART3_Tx*%
X125750000Y-114300000D03*
%TO.P,J4,3,Pin_3*%
%TO.N,USART3_Rx*%
X127000000Y-114300000D03*
%TO.P,J4,4,Pin_4*%
%TO.N,GND*%
X128250000Y-114300000D03*
%TD*%
D45*
%TO.P,FB1,1*%
%TO.N,Net-(F1-Pad2)*%
X142240000Y-99725000D03*
%TO.P,FB1,2*%
%TO.N,BUCK_IN*%
X142240000Y-101600000D03*
%TD*%
D15*
%TO.P,H3,1,1*%
%TO.N,GND*%
X108535000Y-116840000D03*
X109479581Y-114559581D03*
X109479581Y-119120419D03*
X111760000Y-113615000D03*
D16*
X111760000Y-116840000D03*
D15*
X111760000Y-120065000D03*
X114040419Y-114559581D03*
X114040419Y-119120419D03*
X114985000Y-116840000D03*
%TD*%
D46*
%TO.P,L2,1*%
%TO.N,BUCK_SW*%
X137160000Y-105120000D03*
%TO.P,L2,2*%
%TO.N,+3.3V*%
X137160000Y-109220000D03*
%TD*%
D36*
%TO.P,C6,1*%
%TO.N,USART3_Rx*%
X133040000Y-96520000D03*
%TO.P,C6,2*%
X132080000Y-96520000D03*
%TD*%
D47*
%TO.P,J1,1,Pin_1*%
%TO.N,+12V*%
X157480000Y-104140000D03*
D48*
%TO.P,J1,2,Pin_2*%
%TO.N,GND*%
X157480000Y-100640000D03*
%TD*%
D38*
%TO.P,C8,1*%
%TO.N,+3.3V*%
X120960000Y-81280000D03*
%TO.P,C8,2*%
%TO.N,GND*%
X121920000Y-81280000D03*
%TD*%
D49*
%TO.P,L1,1*%
%TO.N,+3.3V*%
X110790000Y-96520000D03*
%TO.P,L1,2*%
%TO.N,+3.3VA*%
X111760000Y-96520000D03*
%TD*%
D17*
%TO.P,R8,1*%
%TO.N,Net-(R7-Pad2)*%
X154940000Y-109220000D03*
%TO.P,R8,2*%
%TO.N,GND*%
X154940000Y-107570000D03*
%TD*%
D50*
%TO.P,J3,1,Pin_1*%
%TO.N,+3.3V*%
X126960000Y-73660000D03*
D44*
%TO.P,J3,2,Pin_2*%
%TO.N,I2C1_SCL*%
X125710000Y-73660000D03*
%TO.P,J3,3,Pin_3*%
%TO.N,I2C1_SDA*%
X124460000Y-73660000D03*
%TO.P,J3,4,Pin_4*%
%TO.N,GND*%
X123210000Y-73660000D03*
%TD*%
D11*
%TO.P,C10,1*%
%TO.N,+3.3VA*%
X116840000Y-94940000D03*
%TO.P,C10,2*%
%TO.N,GND*%
X116840000Y-93980000D03*
%TD*%
D40*
%TO.P,C13,1*%
%TO.N,BUCK_IN*%
X143305000Y-104140000D03*
%TO.P,C13,2*%
%TO.N,GND*%
X146255000Y-104140000D03*
%TD*%
D51*
%TO.P,D3,1,K*%
%TO.N,Net-(D3-K)*%
X152400000Y-98170000D03*
%TO.P,D3,2,A*%
%TO.N,+5V*%
X152400000Y-94870000D03*
%TD*%
D52*
%TO.N,GND*%
X149100000Y-87360000D03*
X149100000Y-87360000D03*
X149100000Y-87360000D03*
X149100000Y-87360000D03*
X149100000Y-87360000D03*
X149100000Y-87360000D03*
X149100000Y-87360000D03*
X109660000Y-105440000D03*
X109660000Y-105440000D03*
X109660000Y-105440000D03*
X109660000Y-105440000D03*
X109660000Y-105440000D03*
X109660000Y-105440000D03*
X109660000Y-105440000D03*
X148100000Y-78740000D03*
X148100000Y-78740000D03*
X148100000Y-78740000D03*
X148100000Y-78740000D03*
X148100000Y-78740000D03*
X148100000Y-78740000D03*
X148100000Y-78740000D03*
X145880000Y-105660000D03*
X145880000Y-105660000D03*
X145880000Y-105660000D03*
X145880000Y-105660000D03*
X145880000Y-105660000D03*
X145880000Y-105660000D03*
X145880000Y-105660000D03*
X145440000Y-105680000D03*
X145440000Y-105680000D03*
X145440000Y-105680000D03*
X145440000Y-105680000D03*
X145440000Y-105680000D03*
X145440000Y-105680000D03*
X145440000Y-105680000D03*
X142220000Y-113440000D03*
X142220000Y-113440000D03*
X142220000Y-113440000D03*
X142220000Y-113440000D03*
X142220000Y-113440000D03*
X142220000Y-113440000D03*
X142220000Y-113440000D03*
X142220000Y-114990000D03*
X142220000Y-114990000D03*
X142220000Y-114990000D03*
X142220000Y-114990000D03*
X142220000Y-114990000D03*
X142220000Y-114990000D03*
X142220000Y-114990000D03*
X142220000Y-112440000D03*
X142220000Y-112440000D03*
X142220000Y-112440000D03*
X142220000Y-112440000D03*
X142220000Y-112440000D03*
X142220000Y-112440000D03*
X142220000Y-112440000D03*
X142220000Y-111220000D03*
X142220000Y-111220000D03*
X142220000Y-111220000D03*
X142220000Y-111220000D03*
X142220000Y-111220000D03*
X142220000Y-111220000D03*
X142220000Y-111220000D03*
X155720000Y-107680000D03*
X155720000Y-107680000D03*
X155720000Y-107680000D03*
X155720000Y-107680000D03*
X155720000Y-107680000D03*
X155720000Y-107680000D03*
X155720000Y-107680000D03*
X155180000Y-106990000D03*
X155180000Y-106990000D03*
X155180000Y-106990000D03*
X155180000Y-106990000D03*
X155180000Y-106990000D03*
X155180000Y-106990000D03*
X155180000Y-106990000D03*
X153220000Y-104140000D03*
X153220000Y-104140000D03*
X153220000Y-104140000D03*
X153220000Y-104140000D03*
X153220000Y-104140000D03*
X153220000Y-104140000D03*
X153220000Y-104140000D03*
X152640000Y-103600000D03*
X152640000Y-103600000D03*
X152640000Y-103600000D03*
X152640000Y-103600000D03*
X152640000Y-103600000D03*
X152640000Y-103600000D03*
X152640000Y-103600000D03*
X149110000Y-99600000D03*
X149110000Y-99600000D03*
X149110000Y-99600000D03*
X149110000Y-99600000D03*
X149110000Y-99600000D03*
X149110000Y-99600000D03*
X149110000Y-99600000D03*
X149100000Y-98220000D03*
X149100000Y-98220000D03*
X149100000Y-98220000D03*
X149100000Y-98220000D03*
X149100000Y-98220000D03*
X149100000Y-98220000D03*
X149100000Y-98220000D03*
X1148100000Y-98060000D03*
X1148100000Y-98060000D03*
X1148100000Y-98060000D03*
X1148100000Y-98060000D03*
X1148100000Y-98060000D03*
X1148100000Y-98060000D03*
X1148100000Y-98060000D03*
X147330000Y-104140000D03*
X147330000Y-104140000D03*
X147330000Y-104140000D03*
X147330000Y-104140000D03*
X147330000Y-104140000D03*
X147330000Y-104140000D03*
X147330000Y-104140000D03*
X145440000Y-104160000D03*
X145440000Y-104160000D03*
X145440000Y-104160000D03*
X145440000Y-104160000D03*
X145440000Y-104160000D03*
X145440000Y-104160000D03*
X145440000Y-104160000D03*
X139880000Y-102300000D03*
X139880000Y-102300000D03*
X139880000Y-102300000D03*
X139880000Y-102300000D03*
X139880000Y-102300000D03*
X139880000Y-102300000D03*
X139880000Y-102300000D03*
X158440000Y-84820000D03*
X158440000Y-84820000D03*
X158440000Y-84820000D03*
X158440000Y-84820000D03*
X158440000Y-84820000D03*
X158440000Y-84820000D03*
X158440000Y-84820000D03*
X160330000Y-84820000D03*
X160330000Y-84820000D03*
X160330000Y-84820000D03*
X160330000Y-84820000D03*
X160330000Y-84820000D03*
X160330000Y-84820000D03*
X160330000Y-84820000D03*
X158260000Y-86360000D03*
X158260000Y-86360000D03*
X158260000Y-86360000D03*
X158260000Y-86360000D03*
X158260000Y-86360000D03*
X158260000Y-86360000D03*
X158260000Y-86360000D03*
X160260000Y-86360000D03*
X160260000Y-86360000D03*
X160260000Y-86360000D03*
X160260000Y-86360000D03*
X160260000Y-86360000D03*
X160260000Y-86360000D03*
X160260000Y-86360000D03*
X160260000Y-86360000D03*
X160260000Y-86360000D03*
X160260000Y-86360000D03*
X160260000Y-86360000D03*
X160260000Y-86360000D03*
X160260000Y-86360000D03*
X160260000Y-86360000D03*
X138940000Y-67990000D03*
X138940000Y-67990000D03*
X138940000Y-67990000D03*
X138940000Y-67990000D03*
X138940000Y-67990000D03*
X138940000Y-67990000D03*
X138940000Y-67990000D03*
X136400000Y-67990000D03*
X136400000Y-67990000D03*
X136400000Y-67990000D03*
X136400000Y-67990000D03*
X136400000Y-67990000D03*
X136400000Y-67990000D03*
X136400000Y-67990000D03*
X134860000Y-67990000D03*
X134860000Y-67990000D03*
X134860000Y-67990000D03*
X134860000Y-67990000D03*
X134860000Y-67990000D03*
X134860000Y-67990000D03*
X134860000Y-67990000D03*
X132320000Y-83330000D03*
X132320000Y-83330000D03*
X132320000Y-83330000D03*
X132320000Y-83330000D03*
X132320000Y-83330000D03*
X132320000Y-83330000D03*
X132320000Y-83330000D03*
X134860000Y-85440000D03*
X134860000Y-85440000D03*
X134860000Y-85440000D03*
X134860000Y-85440000D03*
X134860000Y-85440000D03*
X134860000Y-85440000D03*
X134860000Y-85440000D03*
X139770000Y-100600000D03*
X139770000Y-100600000D03*
X139770000Y-100600000D03*
X139770000Y-100600000D03*
X139770000Y-100600000D03*
X139770000Y-100600000D03*
X139770000Y-100600000D03*
X120990000Y-101600000D03*
X120990000Y-101600000D03*
X120990000Y-101600000D03*
X120990000Y-101600000D03*
X120990000Y-101600000D03*
X120990000Y-101600000D03*
X120990000Y-101600000D03*
X117080000Y-96520000D03*
X117080000Y-96520000D03*
X117080000Y-96520000D03*
X117080000Y-96520000D03*
X117080000Y-96520000D03*
X117080000Y-96520000D03*
X117080000Y-96520000D03*
X122440000Y-81280000D03*
X122440000Y-81280000D03*
X122440000Y-81280000D03*
X122440000Y-81280000D03*
X122440000Y-81280000D03*
X122440000Y-81280000D03*
X122440000Y-81280000D03*
X117080000Y-93440000D03*
X117080000Y-93440000D03*
X117080000Y-93440000D03*
X117080000Y-93440000D03*
X117080000Y-93440000D03*
X117080000Y-93440000D03*
X117080000Y-93440000D03*
X114220000Y-93520000D03*
X114220000Y-93520000D03*
X114220000Y-93520000D03*
X114220000Y-93520000D03*
X114220000Y-93520000D03*
X114220000Y-93520000D03*
X114220000Y-93520000D03*
X107660000Y-93980000D03*
X107660000Y-93980000D03*
X107660000Y-93980000D03*
X107660000Y-93980000D03*
X107660000Y-93980000D03*
X107660000Y-93980000D03*
X107660000Y-93980000D03*
X110770000Y-86360000D03*
X110770000Y-86360000D03*
X110770000Y-86360000D03*
X110770000Y-86360000D03*
X110770000Y-86360000D03*
X110770000Y-86360000D03*
X110770000Y-86360000D03*
X115770000Y-83820000D03*
X115770000Y-83820000D03*
X115770000Y-83820000D03*
X115770000Y-83820000D03*
X115770000Y-83820000D03*
X115770000Y-83820000D03*
X115770000Y-83820000D03*
X117620000Y-86360000D03*
X117620000Y-86360000D03*
X117620000Y-86360000D03*
X117620000Y-86360000D03*
X117620000Y-86360000D03*
X117620000Y-86360000D03*
X117620000Y-86360000D03*
%TO.N,+3.3V*%
X150100000Y-110220000D03*
X149000000Y-109220000D03*
X138940000Y-114300000D03*
X138940000Y-111760000D03*
X138700000Y-108220000D03*
X138700000Y-109440000D03*
X135620000Y-109440000D03*
X135800000Y-108110000D03*
X130620000Y-96520000D03*
X137160000Y-114300000D03*
X137160000Y-111760000D03*
X132080000Y-85360000D03*
X128540000Y-73660000D03*
X120920000Y-80900000D03*
X119000000Y-83820000D03*
X116840000Y-87900000D03*
D53*
X110550000Y-96000000D03*
D52*
X110550000Y-97000000D03*
X109330000Y-100600000D03*
X123549500Y-101600000D03*
X133080000Y-68580000D03*
X143320000Y-73660000D03*
D53*
%TO.N,NRST*%
X137160000Y-86360000D03*
X129540000Y-91440000D03*
%TO.N,SWDIO*%
X133880000Y-72920000D03*
X137160000Y-76200000D03*
%TD*%
D54*
%TO.N,GND*%
X148947500Y-89215685D02*
X148947500Y-87512500D01*
X148947500Y-87512500D02*
X149100000Y-87360000D01*
X149581815Y-89850000D02*
X148947500Y-89215685D01*
X149860000Y-89850000D02*
X149581815Y-89850000D01*
%TO.N,+5V*%
X147863185Y-89850000D02*
X147585000Y-89850000D01*
X148497500Y-90484315D02*
X147863185Y-89850000D01*
X148497500Y-90967500D02*
X148497500Y-90484315D01*
X152400000Y-94870000D02*
X148497500Y-90967500D01*
%TO.N,GND*%
X160260000Y-86360000D02*
X159980000Y-86360000D01*
D55*
X158440000Y-84820000D02*
X159980000Y-86360000D01*
D54*
X160330000Y-84820000D02*
X159800000Y-84820000D01*
D55*
X159800000Y-84820000D02*
X158260000Y-86360000D01*
X160330000Y-86290000D02*
X160330000Y-84820000D01*
D54*
X160260000Y-86360000D02*
X160330000Y-86290000D01*
D55*
X158260000Y-86360000D02*
X158260000Y-85000000D01*
D54*
X158260000Y-85000000D02*
X158440000Y-84820000D01*
D55*
X160260000Y-86360000D02*
X158260000Y-86360000D01*
X160330000Y-84820000D02*
X158440000Y-84820000D01*
D54*
X132080000Y-83570000D02*
X132320000Y-83330000D01*
X132080000Y-83820000D02*
X132080000Y-83570000D01*
X134860000Y-86120000D02*
X134860000Y-85440000D01*
X134620000Y-86360000D02*
X134860000Y-86120000D01*
X121920000Y-101600000D02*
X120990000Y-101600000D01*
X109570000Y-105350000D02*
X109660000Y-105440000D01*
X108440000Y-105350000D02*
X109570000Y-105350000D01*
X147320000Y-78740000D02*
X148100000Y-78740000D01*
X110180000Y-86360000D02*
X110770000Y-86360000D01*
X138910000Y-69270000D02*
X138910000Y-68020000D01*
X138910000Y-68020000D02*
X138940000Y-67990000D01*
X138960000Y-69320000D02*
X138910000Y-69270000D01*
X137065000Y-68655000D02*
X136400000Y-67990000D01*
X136895000Y-69320000D02*
X137065000Y-69150000D01*
X136420000Y-69320000D02*
X136895000Y-69320000D01*
X137065000Y-69150000D02*
X137065000Y-68655000D01*
X135150000Y-69320000D02*
X135150000Y-68280000D01*
X135150000Y-68280000D02*
X134860000Y-67990000D01*
X121920000Y-81280000D02*
X122440000Y-81280000D01*
X116840000Y-83820000D02*
X115770000Y-83820000D01*
X116840000Y-86360000D02*
X117620000Y-86360000D01*
X108260000Y-93980000D02*
X107660000Y-93980000D01*
X116840000Y-93680000D02*
X117080000Y-93440000D01*
X116840000Y-93980000D02*
X116840000Y-93680000D01*
X114300000Y-93600000D02*
X114220000Y-93520000D01*
X114300000Y-93980000D02*
X114300000Y-93600000D01*
X116840000Y-96760000D02*
X117080000Y-96520000D01*
X116840000Y-97410000D02*
X116840000Y-96760000D01*
X139770000Y-102190000D02*
X139880000Y-102300000D01*
X139770000Y-100600000D02*
X139770000Y-102190000D01*
X139180000Y-101600000D02*
X139880000Y-102300000D01*
X138810000Y-101600000D02*
X139180000Y-101600000D01*
X138810000Y-101560000D02*
X139770000Y-100600000D01*
X138810000Y-101600000D02*
X138810000Y-101560000D01*
X142220000Y-113440000D02*
X142220000Y-114990000D01*
X142220000Y-111220000D02*
X142220000Y-112440000D01*
X149220000Y-99490000D02*
X149110000Y-99600000D01*
X149220000Y-99060000D02*
X149220000Y-99490000D01*
X149220000Y-98340000D02*
X149100000Y-98220000D01*
X149220000Y-99060000D02*
X149220000Y-98340000D01*
X141175000Y-114300000D02*
X141530000Y-114300000D01*
X141530000Y-114300000D02*
X142220000Y-114990000D01*
X141360000Y-114300000D02*
X142220000Y-113440000D01*
X141175000Y-114300000D02*
X141360000Y-114300000D01*
X141540000Y-111760000D02*
X142220000Y-112440000D01*
X141175000Y-111760000D02*
X141540000Y-111760000D01*
X141680000Y-111760000D02*
X142220000Y-111220000D01*
X141175000Y-111760000D02*
X141680000Y-111760000D01*
X154940000Y-107570000D02*
X155610000Y-107570000D01*
X155610000Y-107570000D02*
X155720000Y-107680000D01*
X154940000Y-107230000D02*
X155180000Y-106990000D01*
X154940000Y-107570000D02*
X154940000Y-107230000D01*
X152400000Y-104140000D02*
X153220000Y-104140000D01*
X152400000Y-103840000D02*
X152640000Y-103600000D01*
X152400000Y-104140000D02*
X152400000Y-103840000D01*
X146255000Y-104140000D02*
X147330000Y-104140000D01*
X145730000Y-105970000D02*
X145440000Y-105680000D01*
X145730000Y-106680000D02*
X145730000Y-105970000D01*
X145730000Y-106680000D02*
X145730000Y-105810000D01*
X145730000Y-105810000D02*
X145880000Y-105660000D01*
X145460000Y-104140000D02*
X145440000Y-104160000D01*
X146255000Y-104140000D02*
X145460000Y-104140000D01*
%TO.N,Net-(D3-K)*%
X147320000Y-97660000D02*
X147320000Y-99060000D01*
X146180000Y-96520000D02*
X147320000Y-97660000D01*
D56*
%TO.N,GND*%
X116840000Y-86360000D02*
X116840000Y-83820000D01*
D54*
X109220000Y-93020000D02*
X109220000Y-91440000D01*
X108260000Y-93980000D02*
X109220000Y-93020000D01*
X110920000Y-88920000D02*
X110920000Y-89240000D01*
X110180000Y-88180000D02*
X110920000Y-88920000D01*
X110180000Y-86360000D02*
X110180000Y-88180000D01*
%TO.N,+3.3V*%
X137160000Y-114300000D02*
X138940000Y-114300000D01*
X137160000Y-111760000D02*
X138940000Y-111760000D01*
X135620000Y-109440000D02*
X138700000Y-109440000D01*
X135620000Y-108290000D02*
X135800000Y-108110000D01*
X135620000Y-109440000D02*
X135620000Y-108290000D01*
X138700000Y-108220000D02*
X138700000Y-109440000D01*
X138480000Y-109220000D02*
X138700000Y-109440000D01*
X137160000Y-109220000D02*
X138480000Y-109220000D01*
X138590000Y-108110000D02*
X138700000Y-108220000D01*
X135800000Y-108110000D02*
X138590000Y-108110000D01*
X137700000Y-109220000D02*
X138700000Y-108220000D01*
X137160000Y-109220000D02*
X137700000Y-109220000D01*
X135840000Y-109220000D02*
X135620000Y-109440000D01*
X137160000Y-109220000D02*
X135840000Y-109220000D01*
X136910000Y-109220000D02*
X135800000Y-108110000D01*
X137160000Y-109220000D02*
X136910000Y-109220000D01*
X150100000Y-109460000D02*
X150100000Y-110220000D01*
X149860000Y-109220000D02*
X150100000Y-109460000D01*
X149860000Y-109220000D02*
X149000000Y-109220000D01*
X129540000Y-96520000D02*
X130620000Y-96520000D01*
X138225000Y-114300000D02*
X137160000Y-114300000D01*
X138225000Y-111760000D02*
X137160000Y-111760000D01*
X132080000Y-84780000D02*
X132080000Y-85360000D01*
X133140000Y-68580000D02*
X133080000Y-68580000D01*
X133880000Y-69320000D02*
X133140000Y-68580000D01*
X143992500Y-73660000D02*
X143320000Y-73660000D01*
X122880000Y-101600000D02*
X123549500Y-101600000D01*
X109080000Y-100850000D02*
X109330000Y-100600000D01*
X108440000Y-100850000D02*
X109080000Y-100850000D01*
X110790000Y-96240000D02*
X110550000Y-96000000D01*
X110790000Y-96520000D02*
X110790000Y-96240000D01*
X110790000Y-96760000D02*
X110550000Y-97000000D01*
X110790000Y-96520000D02*
X110790000Y-96760000D01*
X116840000Y-87320000D02*
X116840000Y-87900000D01*
X118390000Y-83820000D02*
X119000000Y-83820000D01*
X120960000Y-80940000D02*
X120920000Y-80900000D01*
X120960000Y-81280000D02*
X120960000Y-80940000D01*
D57*
%TO.N,GND*%
X121920000Y-81280000D02*
X122540000Y-81900000D01*
%TO.N,Net-(D4-K)*%
X145567500Y-73660000D02*
X145670000Y-73762500D01*
X145670000Y-73762500D02*
X145670000Y-78740000D01*
%TO.N,BOOT0*%
X120380000Y-84820000D02*
X120380000Y-79260000D01*
X121805000Y-86245000D02*
X120380000Y-84820000D01*
X124040000Y-85975330D02*
X123770330Y-86245000D01*
X123770330Y-86245000D02*
X121805000Y-86245000D01*
X124040000Y-85170000D02*
X124040000Y-85975330D01*
X120380000Y-79260000D02*
X120900000Y-78740000D01*
%TO.N,NRST*%
X138960000Y-73670000D02*
X138960000Y-72920000D01*
X137760000Y-74870000D02*
X138960000Y-73670000D01*
X137160000Y-86360000D02*
X137760000Y-85760000D01*
X137760000Y-85760000D02*
X137760000Y-74870000D01*
X128195000Y-90095000D02*
X129540000Y-91440000D01*
X120115000Y-90095000D02*
X128195000Y-90095000D01*
%TO.N,USB_CONN_D-*%
X150853751Y-90800000D02*
X149860000Y-90800000D01*
X161041397Y-89900000D02*
X159841416Y-91099981D01*
X159841416Y-91099981D02*
X151153732Y-91099981D01*
%TO.N,USB_CONN_D+*%
X150853751Y-88900000D02*
X149860000Y-88900000D01*
%TO.N,USB_CONN_D-*%
X151153732Y-91099981D02*
X150853751Y-90800000D01*
%TO.N,USB_CONN_D+*%
X152603751Y-90650000D02*
X150853751Y-88900000D01*
X159655000Y-90650000D02*
X152603751Y-90650000D01*
X162405000Y-87900000D02*
X159655000Y-90650000D01*
%TO.N,USB_CONN_D-*%
X162405000Y-89900000D02*
X161041397Y-89900000D01*
%TO.N,USB_D-*%
X147235000Y-90450000D02*
X147585000Y-90800000D01*
X146886104Y-90450000D02*
X147235000Y-90450000D01*
X146622500Y-89837500D02*
X146622500Y-90186396D01*
X145855000Y-89070000D02*
X146622500Y-89837500D01*
X135313831Y-89070000D02*
X145855000Y-89070000D01*
X146622500Y-90186396D02*
X146886104Y-90450000D01*
X135273851Y-89109981D02*
X135313831Y-89070000D01*
X132642482Y-89109981D02*
X135273851Y-89109981D01*
X132627501Y-89095000D02*
X132642482Y-89109981D01*
X131465000Y-89095000D02*
X132627501Y-89095000D01*
%TO.N,USB_D+*%
X146321397Y-88900000D02*
X147585000Y-88900000D01*
X135127462Y-88620000D02*
X146041397Y-88620000D01*
X135087462Y-88660000D02*
X135127462Y-88620000D01*
X132692501Y-88660000D02*
X135087462Y-88660000D01*
X146041397Y-88620000D02*
X146321397Y-88900000D01*
X132627501Y-88595000D02*
X132692501Y-88660000D01*
X131465000Y-88595000D02*
X132627501Y-88595000D01*
%TO.N,+5V*%
X154870000Y-92400000D02*
X152400000Y-94870000D01*
X162405000Y-92400000D02*
X154870000Y-92400000D01*
%TO.N,BUCK_IN*%
X143342500Y-101972500D02*
X142240000Y-103075000D01*
X148517500Y-101972500D02*
X143342500Y-101972500D01*
X149860000Y-103315000D02*
X148517500Y-101972500D01*
%TO.N,+12V*%
X157480000Y-104140000D02*
X154275000Y-100935000D01*
X154275000Y-100935000D02*
X148270000Y-100935000D01*
%TO.N,BUCK_IN*%
X144767500Y-107992500D02*
X143305000Y-106530000D01*
X145116396Y-107992500D02*
X144767500Y-107992500D01*
X143305000Y-106530000D02*
X143305000Y-104140000D01*
X145730000Y-108955000D02*
X145730000Y-108606104D01*
X145730000Y-108606104D02*
X145116396Y-107992500D01*
%TO.N,Net-(F1-Pad2)*%
X142240000Y-97660000D02*
X143380000Y-96520000D01*
X142240000Y-99725000D02*
X142240000Y-97660000D01*
%TO.N,BUCK_IN*%
X142240000Y-103075000D02*
X143305000Y-104140000D01*
X142240000Y-101600000D02*
X142240000Y-103075000D01*
%TO.N,BUCK_SW*%
X141260000Y-109220000D02*
X137160000Y-105120000D01*
X142240000Y-109220000D02*
X141260000Y-109220000D01*
X137160000Y-103250000D02*
X137160000Y-105120000D01*
X135510000Y-101600000D02*
X137160000Y-103250000D01*
X146397158Y-109586738D02*
X146397158Y-109237842D01*
X146066396Y-109917500D02*
X146397158Y-109586738D01*
X142937500Y-109917500D02*
X146066396Y-109917500D01*
X142240000Y-109220000D02*
X142937500Y-109917500D01*
%TO.N,Net-(R7-Pad2)*%
X152400000Y-109220000D02*
X154940000Y-109220000D01*
%TO.N,BUCK_FB*%
X149860000Y-107570000D02*
X148475000Y-108955000D01*
X148475000Y-108955000D02*
X146680000Y-108955000D01*
X149860000Y-107570000D02*
X152400000Y-107570000D01*
%TO.N,SWO*%
X129140000Y-79140000D02*
X126540000Y-81740000D01*
X126540000Y-81740000D02*
X126540000Y-85170000D01*
X135745000Y-71570000D02*
X133205000Y-71570000D01*
X133205000Y-71570000D02*
X129140000Y-75635000D01*
X129140000Y-75635000D02*
X129140000Y-79140000D01*
X136420000Y-72245000D02*
X135745000Y-71570000D01*
X136420000Y-72920000D02*
X136420000Y-72245000D01*
%TO.N,SWDIO*%
X130390000Y-82970000D02*
X137160000Y-76200000D01*
X130390000Y-87825330D02*
X130390000Y-82970000D01*
X130659670Y-88095000D02*
X130390000Y-87825330D01*
X131465000Y-88095000D02*
X130659670Y-88095000D01*
%TO.N,SWCLK*%
X129540000Y-81280000D02*
X129540000Y-85170000D01*
X135150000Y-72920000D02*
X135150000Y-75670000D01*
X135150000Y-75670000D02*
X129540000Y-81280000D01*
%TO.N,SWDIO*%
X131465000Y-88095000D02*
X132270330Y-88095000D01*
%TO.N,USART3_Rx*%
X128540000Y-112760000D02*
X127000000Y-114300000D01*
X128540000Y-96520000D02*
X128540000Y-112760000D01*
%TO.N,USART3_Tx*%
X128040000Y-112010000D02*
X125750000Y-114300000D01*
X128040000Y-96520000D02*
X128040000Y-112010000D01*
%TO.N,GND*%
X123210000Y-79990000D02*
X123210000Y-73660000D01*
X121920000Y-81280000D02*
X123210000Y-79990000D01*
%TO.N,I2C1_SDA*%
X124460000Y-81280000D02*
X124460000Y-73660000D01*
%TO.N,I2C1_SCL*%
X125710000Y-77450000D02*
X125710000Y-73660000D01*
X127000000Y-78740000D02*
X125710000Y-77450000D01*
X125040000Y-80700000D02*
X125040000Y-85170000D01*
X127000000Y-78740000D02*
X125040000Y-80700000D01*
%TO.N,GND*%
X122540000Y-81900000D02*
X122540000Y-85170000D01*
%TO.N,I2C1_SDA*%
X124540000Y-81360000D02*
X124540000Y-85170000D01*
X124460000Y-81280000D02*
X124540000Y-81360000D01*
D56*
%TO.N,GND*%
X122540000Y-96520000D02*
X122540000Y-97360685D01*
X116840000Y-86360000D02*
X117080000Y-86360000D01*
%TO.N,USART3_Rx*%
X132080000Y-96520000D02*
X132080000Y-99060000D01*
%TO.N,GND*%
X121920000Y-97980685D02*
X121920000Y-101600000D01*
X122540000Y-97360685D02*
X121920000Y-97980685D01*
X134620000Y-86352391D02*
X134620000Y-86360000D01*
X116840000Y-86360000D02*
X116832391Y-86360000D01*
X132087609Y-83820000D02*
X134620000Y-86352391D01*
%TO.N,+3.3V*%
X131465000Y-85395000D02*
X132080000Y-84780000D01*
X123040000Y-101440000D02*
X122880000Y-101600000D01*
X123040000Y-96520000D02*
X123040000Y-101440000D01*
X120115000Y-85545000D02*
X120115000Y-87095000D01*
X117065000Y-87095000D02*
X120115000Y-87095000D01*
X116840000Y-87320000D02*
X117065000Y-87095000D01*
X118390000Y-83820000D02*
X120115000Y-85545000D01*
X131465000Y-87095000D02*
X131465000Y-85395000D01*
%TO.N,+3.3VA*%
X120115000Y-93095000D02*
X118692609Y-93095000D01*
X116840000Y-94940000D02*
X114300000Y-94940000D01*
X114300000Y-94940000D02*
X112720000Y-96520000D01*
X118692609Y-93095000D02*
X116847609Y-94940000D01*
X116847609Y-94940000D02*
X116840000Y-94940000D01*
X112720000Y-96520000D02*
X111760000Y-96520000D01*
%TO.N,Net-(C11-Pad1)*%
X116840000Y-91440000D02*
X110920000Y-91440000D01*
%TO.N,HSE_IN*%
X113015000Y-89095000D02*
X111845000Y-90265000D01*
X111845000Y-90265000D02*
X110145000Y-90265000D01*
X109220000Y-89340000D02*
X109220000Y-89240000D01*
X110145000Y-90265000D02*
X109220000Y-89340000D01*
X120115000Y-89095000D02*
X113015000Y-89095000D01*
%TO.N,Net-(D1-K)*%
X118592500Y-99060000D02*
X116840000Y-99060000D01*
X119380000Y-99847500D02*
X118592500Y-99060000D01*
%TO.N,LED_STATUS*%
X119380000Y-95330000D02*
X120115000Y-94595000D01*
X119380000Y-98272500D02*
X119380000Y-95330000D01*
%TO.N,HSE_OUT*%
X117860000Y-91009315D02*
X117860000Y-91440000D01*
X120115000Y-89595000D02*
X119274315Y-89595000D01*
X119274315Y-89595000D02*
X117860000Y-91009315D01*
%TO.N,unconnected-(U1-PA1-Pad15)*%
X120115000Y-94095000D02*
X120090000Y-94070000D01*
X120090000Y-94070000D02*
X119380000Y-94070000D01*
%TD*%
M02*
