%TF.GenerationSoftware,KiCad,Pcbnew,7.0.2*%
%TF.CreationDate,2023-05-29T18:28:01+05:30*%
%TF.ProjectId,_autosave-STM32,5f617574-6f73-4617-9665-2d53544d3332,rev?*%
%TF.SameCoordinates,Original*%
%TF.FileFunction,Legend,Top*%
%TF.FilePolarity,Positive*%
%FSLAX46Y46*%
G04 Gerber Fmt 4.6, Leading zero omitted, Abs format (unit mm)*
G04 Created by KiCad (PCBNEW 7.0.2) date 2023-05-29 18:28:01*
%MOMM*%
%LPD*%
G01*
G04 APERTURE LIST*
%ADD10C,0.150000*%
%ADD11C,0.120000*%
G04 APERTURE END LIST*
D10*
%TO.C,U1*%
X125028095Y-82907619D02*
X125028095Y-83717142D01*
X125028095Y-83717142D02*
X125075714Y-83812380D01*
X125075714Y-83812380D02*
X125123333Y-83860000D01*
X125123333Y-83860000D02*
X125218571Y-83907619D01*
X125218571Y-83907619D02*
X125409047Y-83907619D01*
X125409047Y-83907619D02*
X125504285Y-83860000D01*
X125504285Y-83860000D02*
X125551904Y-83812380D01*
X125551904Y-83812380D02*
X125599523Y-83717142D01*
X125599523Y-83717142D02*
X125599523Y-82907619D01*
X126599523Y-83907619D02*
X126028095Y-83907619D01*
X126313809Y-83907619D02*
X126313809Y-82907619D01*
X126313809Y-82907619D02*
X126218571Y-83050476D01*
X126218571Y-83050476D02*
X126123333Y-83145714D01*
X126123333Y-83145714D02*
X126028095Y-83193333D01*
%TO.C,U3*%
X147960595Y-91712619D02*
X147960595Y-92522142D01*
X147960595Y-92522142D02*
X148008214Y-92617380D01*
X148008214Y-92617380D02*
X148055833Y-92665000D01*
X148055833Y-92665000D02*
X148151071Y-92712619D01*
X148151071Y-92712619D02*
X148341547Y-92712619D01*
X148341547Y-92712619D02*
X148436785Y-92665000D01*
X148436785Y-92665000D02*
X148484404Y-92617380D01*
X148484404Y-92617380D02*
X148532023Y-92522142D01*
X148532023Y-92522142D02*
X148532023Y-91712619D01*
X148912976Y-91712619D02*
X149532023Y-91712619D01*
X149532023Y-91712619D02*
X149198690Y-92093571D01*
X149198690Y-92093571D02*
X149341547Y-92093571D01*
X149341547Y-92093571D02*
X149436785Y-92141190D01*
X149436785Y-92141190D02*
X149484404Y-92188809D01*
X149484404Y-92188809D02*
X149532023Y-92284047D01*
X149532023Y-92284047D02*
X149532023Y-92522142D01*
X149532023Y-92522142D02*
X149484404Y-92617380D01*
X149484404Y-92617380D02*
X149436785Y-92665000D01*
X149436785Y-92665000D02*
X149341547Y-92712619D01*
X149341547Y-92712619D02*
X149055833Y-92712619D01*
X149055833Y-92712619D02*
X148960595Y-92665000D01*
X148960595Y-92665000D02*
X148912976Y-92617380D01*
%TO.C,H4*%
X110998095Y-68822619D02*
X110998095Y-67822619D01*
X110998095Y-68298809D02*
X111569523Y-68298809D01*
X111569523Y-68822619D02*
X111569523Y-67822619D01*
X112474285Y-68155952D02*
X112474285Y-68822619D01*
X112236190Y-67775000D02*
X111998095Y-68489285D01*
X111998095Y-68489285D02*
X112617142Y-68489285D01*
%TO.C,H2*%
X156718095Y-112002619D02*
X156718095Y-111002619D01*
X156718095Y-111478809D02*
X157289523Y-111478809D01*
X157289523Y-112002619D02*
X157289523Y-111002619D01*
X157718095Y-111097857D02*
X157765714Y-111050238D01*
X157765714Y-111050238D02*
X157860952Y-111002619D01*
X157860952Y-111002619D02*
X158099047Y-111002619D01*
X158099047Y-111002619D02*
X158194285Y-111050238D01*
X158194285Y-111050238D02*
X158241904Y-111097857D01*
X158241904Y-111097857D02*
X158289523Y-111193095D01*
X158289523Y-111193095D02*
X158289523Y-111288333D01*
X158289523Y-111288333D02*
X158241904Y-111431190D01*
X158241904Y-111431190D02*
X157670476Y-112002619D01*
X157670476Y-112002619D02*
X158289523Y-112002619D01*
%TO.C,Y1*%
X112506428Y-90816190D02*
X112982619Y-90816190D01*
X111982619Y-91149523D02*
X112506428Y-90816190D01*
X112506428Y-90816190D02*
X111982619Y-90482857D01*
X112982619Y-89625714D02*
X112982619Y-90197142D01*
X112982619Y-89911428D02*
X111982619Y-89911428D01*
X111982619Y-89911428D02*
X112125476Y-90006666D01*
X112125476Y-90006666D02*
X112220714Y-90101904D01*
X112220714Y-90101904D02*
X112268333Y-90197142D01*
%TO.C,H1*%
X156718095Y-68822619D02*
X156718095Y-67822619D01*
X156718095Y-68298809D02*
X157289523Y-68298809D01*
X157289523Y-68822619D02*
X157289523Y-67822619D01*
X158289523Y-68822619D02*
X157718095Y-68822619D01*
X158003809Y-68822619D02*
X158003809Y-67822619D01*
X158003809Y-67822619D02*
X157908571Y-67965476D01*
X157908571Y-67965476D02*
X157813333Y-68060714D01*
X157813333Y-68060714D02*
X157718095Y-68108333D01*
%TO.C,Q1*%
X151227857Y-100092738D02*
X151180238Y-100187976D01*
X151180238Y-100187976D02*
X151085000Y-100283214D01*
X151085000Y-100283214D02*
X150942142Y-100426071D01*
X150942142Y-100426071D02*
X150894523Y-100521309D01*
X150894523Y-100521309D02*
X150894523Y-100616547D01*
X151132619Y-100568928D02*
X151085000Y-100664166D01*
X151085000Y-100664166D02*
X150989761Y-100759404D01*
X150989761Y-100759404D02*
X150799285Y-100807023D01*
X150799285Y-100807023D02*
X150465952Y-100807023D01*
X150465952Y-100807023D02*
X150275476Y-100759404D01*
X150275476Y-100759404D02*
X150180238Y-100664166D01*
X150180238Y-100664166D02*
X150132619Y-100568928D01*
X150132619Y-100568928D02*
X150132619Y-100378452D01*
X150132619Y-100378452D02*
X150180238Y-100283214D01*
X150180238Y-100283214D02*
X150275476Y-100187976D01*
X150275476Y-100187976D02*
X150465952Y-100140357D01*
X150465952Y-100140357D02*
X150799285Y-100140357D01*
X150799285Y-100140357D02*
X150989761Y-100187976D01*
X150989761Y-100187976D02*
X151085000Y-100283214D01*
X151085000Y-100283214D02*
X151132619Y-100378452D01*
X151132619Y-100378452D02*
X151132619Y-100568928D01*
X151132619Y-99187976D02*
X151132619Y-99759404D01*
X151132619Y-99473690D02*
X150132619Y-99473690D01*
X150132619Y-99473690D02*
X150275476Y-99568928D01*
X150275476Y-99568928D02*
X150370714Y-99664166D01*
X150370714Y-99664166D02*
X150418333Y-99759404D01*
%TO.C,J5*%
X154817619Y-88333333D02*
X155531904Y-88333333D01*
X155531904Y-88333333D02*
X155674761Y-88380952D01*
X155674761Y-88380952D02*
X155770000Y-88476190D01*
X155770000Y-88476190D02*
X155817619Y-88619047D01*
X155817619Y-88619047D02*
X155817619Y-88714285D01*
X154817619Y-87380952D02*
X154817619Y-87857142D01*
X154817619Y-87857142D02*
X155293809Y-87904761D01*
X155293809Y-87904761D02*
X155246190Y-87857142D01*
X155246190Y-87857142D02*
X155198571Y-87761904D01*
X155198571Y-87761904D02*
X155198571Y-87523809D01*
X155198571Y-87523809D02*
X155246190Y-87428571D01*
X155246190Y-87428571D02*
X155293809Y-87380952D01*
X155293809Y-87380952D02*
X155389047Y-87333333D01*
X155389047Y-87333333D02*
X155627142Y-87333333D01*
X155627142Y-87333333D02*
X155722380Y-87380952D01*
X155722380Y-87380952D02*
X155770000Y-87428571D01*
X155770000Y-87428571D02*
X155817619Y-87523809D01*
X155817619Y-87523809D02*
X155817619Y-87761904D01*
X155817619Y-87761904D02*
X155770000Y-87857142D01*
X155770000Y-87857142D02*
X155722380Y-87904761D01*
%TO.C,SW1*%
X110625000Y-104433332D02*
X110672619Y-104290475D01*
X110672619Y-104290475D02*
X110672619Y-104052380D01*
X110672619Y-104052380D02*
X110625000Y-103957142D01*
X110625000Y-103957142D02*
X110577380Y-103909523D01*
X110577380Y-103909523D02*
X110482142Y-103861904D01*
X110482142Y-103861904D02*
X110386904Y-103861904D01*
X110386904Y-103861904D02*
X110291666Y-103909523D01*
X110291666Y-103909523D02*
X110244047Y-103957142D01*
X110244047Y-103957142D02*
X110196428Y-104052380D01*
X110196428Y-104052380D02*
X110148809Y-104242856D01*
X110148809Y-104242856D02*
X110101190Y-104338094D01*
X110101190Y-104338094D02*
X110053571Y-104385713D01*
X110053571Y-104385713D02*
X109958333Y-104433332D01*
X109958333Y-104433332D02*
X109863095Y-104433332D01*
X109863095Y-104433332D02*
X109767857Y-104385713D01*
X109767857Y-104385713D02*
X109720238Y-104338094D01*
X109720238Y-104338094D02*
X109672619Y-104242856D01*
X109672619Y-104242856D02*
X109672619Y-104004761D01*
X109672619Y-104004761D02*
X109720238Y-103861904D01*
X109672619Y-103528570D02*
X110672619Y-103290475D01*
X110672619Y-103290475D02*
X109958333Y-103099999D01*
X109958333Y-103099999D02*
X110672619Y-102909523D01*
X110672619Y-102909523D02*
X109672619Y-102671428D01*
X110672619Y-101766666D02*
X110672619Y-102338094D01*
X110672619Y-102052380D02*
X109672619Y-102052380D01*
X109672619Y-102052380D02*
X109815476Y-102147618D01*
X109815476Y-102147618D02*
X109910714Y-102242856D01*
X109910714Y-102242856D02*
X109958333Y-102338094D01*
%TO.C,F1*%
X144446666Y-98278809D02*
X144113333Y-98278809D01*
X144113333Y-98802619D02*
X144113333Y-97802619D01*
X144113333Y-97802619D02*
X144589523Y-97802619D01*
X145494285Y-98802619D02*
X144922857Y-98802619D01*
X145208571Y-98802619D02*
X145208571Y-97802619D01*
X145208571Y-97802619D02*
X145113333Y-97945476D01*
X145113333Y-97945476D02*
X145018095Y-98040714D01*
X145018095Y-98040714D02*
X144922857Y-98088333D01*
%TO.C,J2*%
X131207619Y-71453333D02*
X131921904Y-71453333D01*
X131921904Y-71453333D02*
X132064761Y-71500952D01*
X132064761Y-71500952D02*
X132160000Y-71596190D01*
X132160000Y-71596190D02*
X132207619Y-71739047D01*
X132207619Y-71739047D02*
X132207619Y-71834285D01*
X131302857Y-71024761D02*
X131255238Y-70977142D01*
X131255238Y-70977142D02*
X131207619Y-70881904D01*
X131207619Y-70881904D02*
X131207619Y-70643809D01*
X131207619Y-70643809D02*
X131255238Y-70548571D01*
X131255238Y-70548571D02*
X131302857Y-70500952D01*
X131302857Y-70500952D02*
X131398095Y-70453333D01*
X131398095Y-70453333D02*
X131493333Y-70453333D01*
X131493333Y-70453333D02*
X131636190Y-70500952D01*
X131636190Y-70500952D02*
X132207619Y-71072380D01*
X132207619Y-71072380D02*
X132207619Y-70453333D01*
%TO.C,D2*%
X136421905Y-100062619D02*
X136421905Y-99062619D01*
X136421905Y-99062619D02*
X136660000Y-99062619D01*
X136660000Y-99062619D02*
X136802857Y-99110238D01*
X136802857Y-99110238D02*
X136898095Y-99205476D01*
X136898095Y-99205476D02*
X136945714Y-99300714D01*
X136945714Y-99300714D02*
X136993333Y-99491190D01*
X136993333Y-99491190D02*
X136993333Y-99634047D01*
X136993333Y-99634047D02*
X136945714Y-99824523D01*
X136945714Y-99824523D02*
X136898095Y-99919761D01*
X136898095Y-99919761D02*
X136802857Y-100015000D01*
X136802857Y-100015000D02*
X136660000Y-100062619D01*
X136660000Y-100062619D02*
X136421905Y-100062619D01*
X137374286Y-99157857D02*
X137421905Y-99110238D01*
X137421905Y-99110238D02*
X137517143Y-99062619D01*
X137517143Y-99062619D02*
X137755238Y-99062619D01*
X137755238Y-99062619D02*
X137850476Y-99110238D01*
X137850476Y-99110238D02*
X137898095Y-99157857D01*
X137898095Y-99157857D02*
X137945714Y-99253095D01*
X137945714Y-99253095D02*
X137945714Y-99348333D01*
X137945714Y-99348333D02*
X137898095Y-99491190D01*
X137898095Y-99491190D02*
X137326667Y-100062619D01*
X137326667Y-100062619D02*
X137945714Y-100062619D01*
%TO.C,D4*%
X144041905Y-75552619D02*
X144041905Y-74552619D01*
X144041905Y-74552619D02*
X144280000Y-74552619D01*
X144280000Y-74552619D02*
X144422857Y-74600238D01*
X144422857Y-74600238D02*
X144518095Y-74695476D01*
X144518095Y-74695476D02*
X144565714Y-74790714D01*
X144565714Y-74790714D02*
X144613333Y-74981190D01*
X144613333Y-74981190D02*
X144613333Y-75124047D01*
X144613333Y-75124047D02*
X144565714Y-75314523D01*
X144565714Y-75314523D02*
X144518095Y-75409761D01*
X144518095Y-75409761D02*
X144422857Y-75505000D01*
X144422857Y-75505000D02*
X144280000Y-75552619D01*
X144280000Y-75552619D02*
X144041905Y-75552619D01*
X145470476Y-74885952D02*
X145470476Y-75552619D01*
X145232381Y-74505000D02*
X144994286Y-75219285D01*
X144994286Y-75219285D02*
X145613333Y-75219285D01*
%TO.C,J4*%
X126046666Y-111812619D02*
X126046666Y-112526904D01*
X126046666Y-112526904D02*
X125999047Y-112669761D01*
X125999047Y-112669761D02*
X125903809Y-112765000D01*
X125903809Y-112765000D02*
X125760952Y-112812619D01*
X125760952Y-112812619D02*
X125665714Y-112812619D01*
X126951428Y-112145952D02*
X126951428Y-112812619D01*
X126713333Y-111765000D02*
X126475238Y-112479285D01*
X126475238Y-112479285D02*
X127094285Y-112479285D01*
%TO.C,FB1*%
X143828809Y-101495833D02*
X143828809Y-101829166D01*
X144352619Y-101829166D02*
X143352619Y-101829166D01*
X143352619Y-101829166D02*
X143352619Y-101352976D01*
X143828809Y-100638690D02*
X143876428Y-100495833D01*
X143876428Y-100495833D02*
X143924047Y-100448214D01*
X143924047Y-100448214D02*
X144019285Y-100400595D01*
X144019285Y-100400595D02*
X144162142Y-100400595D01*
X144162142Y-100400595D02*
X144257380Y-100448214D01*
X144257380Y-100448214D02*
X144305000Y-100495833D01*
X144305000Y-100495833D02*
X144352619Y-100591071D01*
X144352619Y-100591071D02*
X144352619Y-100972023D01*
X144352619Y-100972023D02*
X143352619Y-100972023D01*
X143352619Y-100972023D02*
X143352619Y-100638690D01*
X143352619Y-100638690D02*
X143400238Y-100543452D01*
X143400238Y-100543452D02*
X143447857Y-100495833D01*
X143447857Y-100495833D02*
X143543095Y-100448214D01*
X143543095Y-100448214D02*
X143638333Y-100448214D01*
X143638333Y-100448214D02*
X143733571Y-100495833D01*
X143733571Y-100495833D02*
X143781190Y-100543452D01*
X143781190Y-100543452D02*
X143828809Y-100638690D01*
X143828809Y-100638690D02*
X143828809Y-100972023D01*
X144352619Y-99448214D02*
X144352619Y-100019642D01*
X144352619Y-99733928D02*
X143352619Y-99733928D01*
X143352619Y-99733928D02*
X143495476Y-99829166D01*
X143495476Y-99829166D02*
X143590714Y-99924404D01*
X143590714Y-99924404D02*
X143638333Y-100019642D01*
%TO.C,H3*%
X110998095Y-112002619D02*
X110998095Y-111002619D01*
X110998095Y-111478809D02*
X111569523Y-111478809D01*
X111569523Y-112002619D02*
X111569523Y-111002619D01*
X111950476Y-111002619D02*
X112569523Y-111002619D01*
X112569523Y-111002619D02*
X112236190Y-111383571D01*
X112236190Y-111383571D02*
X112379047Y-111383571D01*
X112379047Y-111383571D02*
X112474285Y-111431190D01*
X112474285Y-111431190D02*
X112521904Y-111478809D01*
X112521904Y-111478809D02*
X112569523Y-111574047D01*
X112569523Y-111574047D02*
X112569523Y-111812142D01*
X112569523Y-111812142D02*
X112521904Y-111907380D01*
X112521904Y-111907380D02*
X112474285Y-111955000D01*
X112474285Y-111955000D02*
X112379047Y-112002619D01*
X112379047Y-112002619D02*
X112093333Y-112002619D01*
X112093333Y-112002619D02*
X111998095Y-111955000D01*
X111998095Y-111955000D02*
X111950476Y-111907380D01*
%TO.C,J1*%
X152782619Y-102723333D02*
X153496904Y-102723333D01*
X153496904Y-102723333D02*
X153639761Y-102770952D01*
X153639761Y-102770952D02*
X153735000Y-102866190D01*
X153735000Y-102866190D02*
X153782619Y-103009047D01*
X153782619Y-103009047D02*
X153782619Y-103104285D01*
X153782619Y-101723333D02*
X153782619Y-102294761D01*
X153782619Y-102009047D02*
X152782619Y-102009047D01*
X152782619Y-102009047D02*
X152925476Y-102104285D01*
X152925476Y-102104285D02*
X153020714Y-102199523D01*
X153020714Y-102199523D02*
X153068333Y-102294761D01*
%TO.C,J3*%
X124746666Y-75072619D02*
X124746666Y-75786904D01*
X124746666Y-75786904D02*
X124699047Y-75929761D01*
X124699047Y-75929761D02*
X124603809Y-76025000D01*
X124603809Y-76025000D02*
X124460952Y-76072619D01*
X124460952Y-76072619D02*
X124365714Y-76072619D01*
X125127619Y-75072619D02*
X125746666Y-75072619D01*
X125746666Y-75072619D02*
X125413333Y-75453571D01*
X125413333Y-75453571D02*
X125556190Y-75453571D01*
X125556190Y-75453571D02*
X125651428Y-75501190D01*
X125651428Y-75501190D02*
X125699047Y-75548809D01*
X125699047Y-75548809D02*
X125746666Y-75644047D01*
X125746666Y-75644047D02*
X125746666Y-75882142D01*
X125746666Y-75882142D02*
X125699047Y-75977380D01*
X125699047Y-75977380D02*
X125651428Y-76025000D01*
X125651428Y-76025000D02*
X125556190Y-76072619D01*
X125556190Y-76072619D02*
X125270476Y-76072619D01*
X125270476Y-76072619D02*
X125175238Y-76025000D01*
X125175238Y-76025000D02*
X125127619Y-75977380D01*
%TO.C,D3*%
X150862619Y-97258094D02*
X149862619Y-97258094D01*
X149862619Y-97258094D02*
X149862619Y-97019999D01*
X149862619Y-97019999D02*
X149910238Y-96877142D01*
X149910238Y-96877142D02*
X150005476Y-96781904D01*
X150005476Y-96781904D02*
X150100714Y-96734285D01*
X150100714Y-96734285D02*
X150291190Y-96686666D01*
X150291190Y-96686666D02*
X150434047Y-96686666D01*
X150434047Y-96686666D02*
X150624523Y-96734285D01*
X150624523Y-96734285D02*
X150719761Y-96781904D01*
X150719761Y-96781904D02*
X150815000Y-96877142D01*
X150815000Y-96877142D02*
X150862619Y-97019999D01*
X150862619Y-97019999D02*
X150862619Y-97258094D01*
X149862619Y-96353332D02*
X149862619Y-95734285D01*
X149862619Y-95734285D02*
X150243571Y-96067618D01*
X150243571Y-96067618D02*
X150243571Y-95924761D01*
X150243571Y-95924761D02*
X150291190Y-95829523D01*
X150291190Y-95829523D02*
X150338809Y-95781904D01*
X150338809Y-95781904D02*
X150434047Y-95734285D01*
X150434047Y-95734285D02*
X150672142Y-95734285D01*
X150672142Y-95734285D02*
X150767380Y-95781904D01*
X150767380Y-95781904D02*
X150815000Y-95829523D01*
X150815000Y-95829523D02*
X150862619Y-95924761D01*
X150862619Y-95924761D02*
X150862619Y-96210475D01*
X150862619Y-96210475D02*
X150815000Y-96305713D01*
X150815000Y-96305713D02*
X150767380Y-96353332D01*
D11*
%TO.C,C4*%
X116480000Y-86947836D02*
X116480000Y-86732164D01*
X117200000Y-86947836D02*
X117200000Y-86732164D01*
%TO.C,U1*%
X120680000Y-85735000D02*
X120680000Y-86685000D01*
X120680000Y-86685000D02*
X119340000Y-86685000D01*
X120680000Y-95955000D02*
X120680000Y-95005000D01*
X121630000Y-85735000D02*
X120680000Y-85735000D01*
X121630000Y-95955000D02*
X120680000Y-95955000D01*
X129950000Y-85735000D02*
X130900000Y-85735000D01*
X129950000Y-95955000D02*
X130900000Y-95955000D01*
X130900000Y-85735000D02*
X130900000Y-86685000D01*
X130900000Y-95955000D02*
X130900000Y-95005000D01*
%TO.C,C7*%
X131720000Y-84407836D02*
X131720000Y-84192164D01*
X132440000Y-84407836D02*
X132440000Y-84192164D01*
%TO.C,C9*%
X113940000Y-94567836D02*
X113940000Y-94352164D01*
X114660000Y-94567836D02*
X114660000Y-94352164D01*
%TO.C,U3*%
X148722500Y-91410000D02*
X150522500Y-91410000D01*
X148722500Y-91410000D02*
X147922500Y-91410000D01*
X148722500Y-88290000D02*
X149522500Y-88290000D01*
X148722500Y-88290000D02*
X147922500Y-88290000D01*
%TO.C,R6*%
X149337500Y-108632258D02*
X149337500Y-108157742D01*
X150382500Y-108632258D02*
X150382500Y-108157742D01*
%TO.C,C14*%
X142750000Y-108304420D02*
X142750000Y-108585580D01*
X141730000Y-108304420D02*
X141730000Y-108585580D01*
%TO.C,C2*%
X134110000Y-87275580D02*
X134110000Y-86994420D01*
X135130000Y-87275580D02*
X135130000Y-86994420D01*
%TO.C,R7*%
X152922500Y-108157742D02*
X152922500Y-108632258D01*
X151877500Y-108157742D02*
X151877500Y-108632258D01*
%TO.C,Y1*%
X111720000Y-88340000D02*
X108420000Y-88340000D01*
X108420000Y-88340000D02*
X108420000Y-92340000D01*
%TO.C,C3*%
X117755580Y-84330000D02*
X117474420Y-84330000D01*
X117755580Y-83310000D02*
X117474420Y-83310000D01*
%TO.C,Q1*%
X149830000Y-99997500D02*
X149830000Y-98322500D01*
X149830000Y-99997500D02*
X149830000Y-100647500D01*
X146710000Y-99997500D02*
X146710000Y-99347500D01*
X146710000Y-99997500D02*
X146710000Y-100647500D01*
%TO.C,J5*%
X157505000Y-95600000D02*
X160105000Y-95600000D01*
X157505000Y-95600000D02*
X157505000Y-90650000D01*
X157505000Y-82200000D02*
X157505000Y-87150000D01*
X157505000Y-82200000D02*
X160105000Y-82200000D01*
X163505000Y-82200000D02*
X163505000Y-95600000D01*
%TO.C,R2*%
X117503641Y-91820000D02*
X117196359Y-91820000D01*
X117503641Y-91060000D02*
X117196359Y-91060000D01*
%TO.C,SW1*%
X107080000Y-99650000D02*
X106290000Y-99650000D01*
X105280000Y-100250000D02*
X105280000Y-105950000D01*
X108130000Y-101500000D02*
X108130000Y-103200000D01*
X105280000Y-101700000D02*
X103990000Y-101700000D01*
X103990000Y-101700000D02*
X103780000Y-101900000D01*
X103780000Y-101900000D02*
X103780000Y-102800000D01*
X103990000Y-103000000D02*
X103780000Y-102800000D01*
X103990000Y-103000000D02*
X105280000Y-103000000D01*
X108130000Y-104500000D02*
X108130000Y-104700000D01*
X106290000Y-106550000D02*
X107080000Y-106550000D01*
%TO.C,D1*%
X118645000Y-100545000D02*
X120115000Y-100545000D01*
X120115000Y-100545000D02*
X120115000Y-98260000D01*
X118645000Y-98260000D02*
X118645000Y-100545000D01*
%TO.C,R1*%
X121256359Y-78360000D02*
X121563641Y-78360000D01*
X121256359Y-79120000D02*
X121563641Y-79120000D01*
%TO.C,R11*%
X146257742Y-78217500D02*
X146732258Y-78217500D01*
X146257742Y-79262500D02*
X146732258Y-79262500D01*
%TO.C,U2*%
X144170000Y-107817500D02*
X144170000Y-108617500D01*
X144170000Y-107817500D02*
X144170000Y-107017500D01*
X147290000Y-107817500D02*
X147290000Y-108617500D01*
X147290000Y-107817500D02*
X147290000Y-106017500D01*
%TO.C,C1*%
X131164420Y-98550000D02*
X131445580Y-98550000D01*
X131164420Y-99570000D02*
X131445580Y-99570000D01*
%TO.C,C12*%
X108847836Y-94340000D02*
X108632164Y-94340000D01*
X108847836Y-93620000D02*
X108632164Y-93620000D01*
%TO.C,C5*%
X122507836Y-101960000D02*
X122292164Y-101960000D01*
X122507836Y-101240000D02*
X122292164Y-101240000D01*
%TO.C,R3*%
X117362500Y-97997742D02*
X117362500Y-98472258D01*
X116317500Y-97997742D02*
X116317500Y-98472258D01*
%TO.C,F1*%
X145382064Y-97430000D02*
X144177936Y-97430000D01*
X145382064Y-95610000D02*
X144177936Y-95610000D01*
%TO.C,C11*%
X109592164Y-86000000D02*
X109807836Y-86000000D01*
X109592164Y-86720000D02*
X109807836Y-86720000D01*
%TO.C,R9*%
X127663641Y-79120000D02*
X127356359Y-79120000D01*
X127663641Y-78360000D02*
X127356359Y-78360000D01*
%TO.C,R5*%
X151877500Y-105202258D02*
X151877500Y-104727742D01*
X152922500Y-105202258D02*
X152922500Y-104727742D01*
%TO.C,J2*%
X133185000Y-72450000D02*
X133245000Y-72450000D01*
X133185000Y-72450000D02*
X133185000Y-69790000D01*
X139595000Y-72450000D02*
X139655000Y-72450000D01*
X139655000Y-72450000D02*
X139655000Y-69790000D01*
X133185000Y-69790000D02*
X133245000Y-69790000D01*
X133245000Y-69790000D02*
X133245000Y-68330000D01*
X139595000Y-69790000D02*
X139655000Y-69790000D01*
%TO.C,R10*%
X123796359Y-80900000D02*
X124103641Y-80900000D01*
X123796359Y-81660000D02*
X124103641Y-81660000D01*
%TO.C,C15*%
X138988748Y-110850000D02*
X140411252Y-110850000D01*
X138988748Y-112670000D02*
X140411252Y-112670000D01*
%TO.C,R4*%
X150382500Y-103902742D02*
X150382500Y-104377258D01*
X149337500Y-103902742D02*
X149337500Y-104377258D01*
%TO.C,D2*%
X134800000Y-100600000D02*
X134800000Y-102600000D01*
X134800000Y-100600000D02*
X138810000Y-100600000D01*
X134800000Y-102600000D02*
X138810000Y-102600000D01*
%TO.C,C16*%
X138988748Y-113390000D02*
X140411252Y-113390000D01*
X138988748Y-115210000D02*
X140411252Y-115210000D01*
%TO.C,D4*%
X146265000Y-74395000D02*
X146265000Y-72925000D01*
X146265000Y-72925000D02*
X143980000Y-72925000D01*
X143980000Y-74395000D02*
X146265000Y-74395000D01*
%TO.C,J4*%
X122890000Y-113140000D02*
X122890000Y-118860000D01*
X122890000Y-118860000D02*
X126375000Y-118860000D01*
X123960000Y-113140000D02*
X122890000Y-113140000D01*
X123960000Y-113440000D02*
X123960000Y-113140000D01*
X124250000Y-112850000D02*
X123750000Y-112850000D01*
X124250000Y-113150000D02*
X124250000Y-112850000D01*
X126375000Y-113440000D02*
X123960000Y-113440000D01*
X126375000Y-113440000D02*
X128790000Y-113440000D01*
X128790000Y-113140000D02*
X129860000Y-113140000D01*
X128790000Y-113440000D02*
X128790000Y-113140000D01*
X129860000Y-113140000D02*
X129860000Y-118860000D01*
X129860000Y-118860000D02*
X126375000Y-118860000D01*
%TO.C,FB1*%
X142950000Y-100403922D02*
X142950000Y-100921078D01*
X141530000Y-100403922D02*
X141530000Y-100921078D01*
%TO.C,L2*%
X140020000Y-104210000D02*
X138670000Y-104210000D01*
X140020000Y-104210000D02*
X140020000Y-110130000D01*
X134300000Y-104210000D02*
X135650000Y-104210000D01*
X134300000Y-104210000D02*
X134300000Y-110130000D01*
X140020000Y-110130000D02*
X138670000Y-110130000D01*
X134300000Y-110130000D02*
X135650000Y-110130000D01*
%TO.C,C6*%
X132667836Y-96880000D02*
X132452164Y-96880000D01*
X132667836Y-96160000D02*
X132452164Y-96160000D01*
%TO.C,J1*%
X161640000Y-106190000D02*
X162280000Y-106190000D01*
X162280000Y-106190000D02*
X162280000Y-105790000D01*
X154320000Y-105950000D02*
X162040000Y-105950000D01*
X154320000Y-105950000D02*
X154320000Y-98830000D01*
X160480000Y-105950000D02*
X160480000Y-98830000D01*
X161580000Y-105950000D02*
X161580000Y-98830000D01*
X162040000Y-105950000D02*
X162040000Y-98830000D01*
X158421000Y-101785000D02*
X158549000Y-101914000D01*
X158661000Y-101615000D02*
X158754000Y-101709000D01*
X156205000Y-99570000D02*
X156299000Y-99664000D01*
X156411000Y-99365000D02*
X156539000Y-99494000D01*
X154320000Y-98830000D02*
X162040000Y-98830000D01*
X156614000Y-105580000D02*
G75*
G03*
X158369894Y-105565358I866000J1439998D01*
G01*
X156040000Y-103274000D02*
G75*
G03*
X156054642Y-105029894I1439998J-866000D01*
G01*
X158920000Y-105006000D02*
G75*
G03*
X159160098Y-104111326I-1440014J866003D01*
G01*
X159159999Y-104140000D02*
G75*
G03*
X158904720Y-103249736I-1679989J3D01*
G01*
X158370999Y-102715001D02*
G75*
G03*
X156589808Y-102714497I-890999J-1425002D01*
G01*
X159160000Y-100640000D02*
G75*
G03*
X159160000Y-100640000I-1680000J0D01*
G01*
%TO.C,C8*%
X121332164Y-80920000D02*
X121547836Y-80920000D01*
X121332164Y-81640000D02*
X121547836Y-81640000D01*
%TO.C,R8*%
X154417500Y-108632258D02*
X154417500Y-108157742D01*
X155462500Y-108632258D02*
X155462500Y-108157742D01*
%TO.C,J3*%
X128570000Y-74820000D02*
X128570000Y-69100000D01*
X128570000Y-69100000D02*
X125085000Y-69100000D01*
X127500000Y-74820000D02*
X128570000Y-74820000D01*
X127500000Y-74520000D02*
X127500000Y-74820000D01*
X127210000Y-75110000D02*
X127710000Y-75110000D01*
X127210000Y-74810000D02*
X127210000Y-75110000D01*
X125085000Y-74520000D02*
X127500000Y-74520000D01*
X125085000Y-74520000D02*
X122670000Y-74520000D01*
X122670000Y-74820000D02*
X121600000Y-74820000D01*
X122670000Y-74520000D02*
X122670000Y-74820000D01*
X121600000Y-74820000D02*
X121600000Y-69100000D01*
X121600000Y-69100000D02*
X125085000Y-69100000D01*
%TO.C,C10*%
X116480000Y-94567836D02*
X116480000Y-94352164D01*
X117200000Y-94567836D02*
X117200000Y-94352164D01*
%TO.C,C13*%
X144068748Y-103230000D02*
X145491252Y-103230000D01*
X144068748Y-105050000D02*
X145491252Y-105050000D01*
%TO.C,D3*%
X151400000Y-98880000D02*
X153400000Y-98880000D01*
X151400000Y-98880000D02*
X151400000Y-94870000D01*
X153400000Y-98880000D02*
X153400000Y-94870000D01*
%TD*%
M02*
