%TF.GenerationSoftware,KiCad,Pcbnew,7.0.2*%
%TF.CreationDate,2023-05-29T18:28:01+05:30*%
%TF.ProjectId,_autosave-STM32,5f617574-6f73-4617-9665-2d53544d3332,rev?*%
%TF.SameCoordinates,Original*%
%TF.FileFunction,Copper,L2,Bot*%
%TF.FilePolarity,Positive*%
%FSLAX46Y46*%
G04 Gerber Fmt 4.6, Leading zero omitted, Abs format (unit mm)*
G04 Created by KiCad (PCBNEW 7.0.2) date 2023-05-29 18:28:01*
%MOMM*%
%LPD*%
G01*
G04 APERTURE LIST*
G04 Aperture macros list*
%AMRoundRect*
0 Rectangle with rounded corners*
0 $1 Rounding radius*
0 $2 $3 $4 $5 $6 $7 $8 $9 X,Y pos of 4 corners*
0 Add a 4 corners polygon primitive as box body*
4,1,4,$2,$3,$4,$5,$6,$7,$8,$9,$2,$3,0*
0 Add four circle primitives for the rounded corners*
1,1,$1+$1,$2,$3*
1,1,$1+$1,$4,$5*
1,1,$1+$1,$6,$7*
1,1,$1+$1,$8,$9*
0 Add four rect primitives between the rounded corners*
20,1,$1+$1,$2,$3,$4,$5,0*
20,1,$1+$1,$4,$5,$6,$7,0*
20,1,$1+$1,$6,$7,$8,$9,0*
20,1,$1+$1,$8,$9,$2,$3,0*%
G04 Aperture macros list end*
%TA.AperFunction,ComponentPad*%
%ADD10C,0.900000*%
%TD*%
%TA.AperFunction,ComponentPad*%
%ADD11C,8.600000*%
%TD*%
%TA.AperFunction,ComponentPad*%
%ADD12R,1.300000X1.300000*%
%TD*%
%TA.AperFunction,ComponentPad*%
%ADD13C,1.300000*%
%TD*%
%TA.AperFunction,ComponentPad*%
%ADD14O,2.900000X1.900000*%
%TD*%
%TA.AperFunction,ComponentPad*%
%ADD15O,1.900000X2.900000*%
%TD*%
%TA.AperFunction,ComponentPad*%
%ADD16RoundRect,0.200000X-0.200000X-0.450000X0.200000X-0.450000X0.200000X0.450000X-0.200000X0.450000X0*%
%TD*%
%TA.AperFunction,ComponentPad*%
%ADD17O,0.800000X1.300000*%
%TD*%
%TA.AperFunction,ComponentPad*%
%ADD18R,2.400000X2.400000*%
%TD*%
%TA.AperFunction,ComponentPad*%
%ADD19C,2.400000*%
%TD*%
%TA.AperFunction,ComponentPad*%
%ADD20RoundRect,0.200000X0.200000X0.450000X-0.200000X0.450000X-0.200000X-0.450000X0.200000X-0.450000X0*%
%TD*%
%TA.AperFunction,ViaPad*%
%ADD21C,0.300000*%
%TD*%
%TA.AperFunction,ViaPad*%
%ADD22C,0.600000*%
%TD*%
%TA.AperFunction,Conductor*%
%ADD23C,0.200000*%
%TD*%
G04 APERTURE END LIST*
D10*
%TO.P,H4,1,1*%
%TO.N,GND*%
X108535000Y-73660000D03*
X109479581Y-71379581D03*
X109479581Y-75940419D03*
X111760000Y-70435000D03*
D11*
X111760000Y-73660000D03*
D10*
X111760000Y-76885000D03*
X114040419Y-71379581D03*
X114040419Y-75940419D03*
X114985000Y-73660000D03*
%TD*%
%TO.P,H2,1,1*%
%TO.N,GND*%
X154255000Y-116840000D03*
X155199581Y-114559581D03*
X155199581Y-119120419D03*
X157480000Y-113615000D03*
D11*
X157480000Y-116840000D03*
D10*
X157480000Y-120065000D03*
X159760419Y-114559581D03*
X159760419Y-119120419D03*
X160705000Y-116840000D03*
%TD*%
%TO.P,H1,1,1*%
%TO.N,GND*%
X154255000Y-73660000D03*
X155199581Y-71379581D03*
X155199581Y-75940419D03*
X157480000Y-70435000D03*
D11*
X157480000Y-73660000D03*
D10*
X157480000Y-76885000D03*
X159760419Y-71379581D03*
X159760419Y-75940419D03*
X160705000Y-73660000D03*
%TD*%
D12*
%TO.P,J5,1,VBUS*%
%TO.N,+5V*%
X162405000Y-92400000D03*
D13*
%TO.P,J5,2,D-*%
%TO.N,USB_CONN_D-*%
X162405000Y-89900000D03*
%TO.P,J5,3,D+*%
%TO.N,USB_CONN_D+*%
X162405000Y-87900000D03*
%TO.P,J5,4,ID*%
%TO.N,unconnected-(J5-ID-Pad4)*%
X162405000Y-85400000D03*
D14*
%TO.P,J5,5,GND*%
%TO.N,GND*%
X161805000Y-95470000D03*
D15*
X157625000Y-88900000D03*
D14*
X161805000Y-82330000D03*
%TD*%
D16*
%TO.P,J4,1,Pin_1*%
%TO.N,+3.3V*%
X124500000Y-114300000D03*
D17*
%TO.P,J4,2,Pin_2*%
%TO.N,USART3_Tx*%
X125750000Y-114300000D03*
%TO.P,J4,3,Pin_3*%
%TO.N,USART3_Rx*%
X127000000Y-114300000D03*
%TO.P,J4,4,Pin_4*%
%TO.N,GND*%
X128250000Y-114300000D03*
%TD*%
D10*
%TO.P,H3,1,1*%
%TO.N,GND*%
X108535000Y-116840000D03*
X109479581Y-114559581D03*
X109479581Y-119120419D03*
X111760000Y-113615000D03*
D11*
X111760000Y-116840000D03*
D10*
X111760000Y-120065000D03*
X114040419Y-114559581D03*
X114040419Y-119120419D03*
X114985000Y-116840000D03*
%TD*%
D18*
%TO.P,J1,1,Pin_1*%
%TO.N,+12V*%
X157480000Y-104140000D03*
D19*
%TO.P,J1,2,Pin_2*%
%TO.N,GND*%
X157480000Y-100640000D03*
%TD*%
D20*
%TO.P,J3,1,Pin_1*%
%TO.N,+3.3V*%
X126960000Y-73660000D03*
D17*
%TO.P,J3,2,Pin_2*%
%TO.N,I2C1_SCL*%
X125710000Y-73660000D03*
%TO.P,J3,3,Pin_3*%
%TO.N,I2C1_SDA*%
X124460000Y-73660000D03*
%TO.P,J3,4,Pin_4*%
%TO.N,GND*%
X123210000Y-73660000D03*
%TD*%
D21*
%TO.N,GND*%
X149100000Y-87360000D03*
X149100000Y-87360000D03*
X149100000Y-87360000D03*
X149100000Y-87360000D03*
X149100000Y-87360000D03*
X149100000Y-87360000D03*
X149100000Y-87360000D03*
X109660000Y-105440000D03*
X109660000Y-105440000D03*
X109660000Y-105440000D03*
X109660000Y-105440000D03*
X109660000Y-105440000D03*
X109660000Y-105440000D03*
X109660000Y-105440000D03*
X148100000Y-78740000D03*
X148100000Y-78740000D03*
X148100000Y-78740000D03*
X148100000Y-78740000D03*
X148100000Y-78740000D03*
X148100000Y-78740000D03*
X148100000Y-78740000D03*
X145880000Y-105660000D03*
X145880000Y-105660000D03*
X145880000Y-105660000D03*
X145880000Y-105660000D03*
X145880000Y-105660000D03*
X145880000Y-105660000D03*
X145880000Y-105660000D03*
X145440000Y-105680000D03*
X145440000Y-105680000D03*
X145440000Y-105680000D03*
X145440000Y-105680000D03*
X145440000Y-105680000D03*
X145440000Y-105680000D03*
X145440000Y-105680000D03*
X142220000Y-113440000D03*
X142220000Y-113440000D03*
X142220000Y-113440000D03*
X142220000Y-113440000D03*
X142220000Y-113440000D03*
X142220000Y-113440000D03*
X142220000Y-113440000D03*
X142220000Y-114990000D03*
X142220000Y-114990000D03*
X142220000Y-114990000D03*
X142220000Y-114990000D03*
X142220000Y-114990000D03*
X142220000Y-114990000D03*
X142220000Y-114990000D03*
X142220000Y-112440000D03*
X142220000Y-112440000D03*
X142220000Y-112440000D03*
X142220000Y-112440000D03*
X142220000Y-112440000D03*
X142220000Y-112440000D03*
X142220000Y-112440000D03*
X142220000Y-111220000D03*
X142220000Y-111220000D03*
X142220000Y-111220000D03*
X142220000Y-111220000D03*
X142220000Y-111220000D03*
X142220000Y-111220000D03*
X142220000Y-111220000D03*
X155720000Y-107680000D03*
X155720000Y-107680000D03*
X155720000Y-107680000D03*
X155720000Y-107680000D03*
X155720000Y-107680000D03*
X155720000Y-107680000D03*
X155720000Y-107680000D03*
X155180000Y-106990000D03*
X155180000Y-106990000D03*
X155180000Y-106990000D03*
X155180000Y-106990000D03*
X155180000Y-106990000D03*
X155180000Y-106990000D03*
X155180000Y-106990000D03*
X153220000Y-104140000D03*
X153220000Y-104140000D03*
X153220000Y-104140000D03*
X153220000Y-104140000D03*
X153220000Y-104140000D03*
X153220000Y-104140000D03*
X153220000Y-104140000D03*
X152640000Y-103600000D03*
X152640000Y-103600000D03*
X152640000Y-103600000D03*
X152640000Y-103600000D03*
X152640000Y-103600000D03*
X152640000Y-103600000D03*
X152640000Y-103600000D03*
X149110000Y-99600000D03*
X149110000Y-99600000D03*
X149110000Y-99600000D03*
X149110000Y-99600000D03*
X149110000Y-99600000D03*
X149110000Y-99600000D03*
X149110000Y-99600000D03*
X149100000Y-98220000D03*
X149100000Y-98220000D03*
X149100000Y-98220000D03*
X149100000Y-98220000D03*
X149100000Y-98220000D03*
X149100000Y-98220000D03*
X149100000Y-98220000D03*
X1148100000Y-98060000D03*
X1148100000Y-98060000D03*
X1148100000Y-98060000D03*
X1148100000Y-98060000D03*
X1148100000Y-98060000D03*
X1148100000Y-98060000D03*
X1148100000Y-98060000D03*
X147330000Y-104140000D03*
X147330000Y-104140000D03*
X147330000Y-104140000D03*
X147330000Y-104140000D03*
X147330000Y-104140000D03*
X147330000Y-104140000D03*
X147330000Y-104140000D03*
X145440000Y-104160000D03*
X145440000Y-104160000D03*
X145440000Y-104160000D03*
X145440000Y-104160000D03*
X145440000Y-104160000D03*
X145440000Y-104160000D03*
X145440000Y-104160000D03*
X139880000Y-102300000D03*
X139880000Y-102300000D03*
X139880000Y-102300000D03*
X139880000Y-102300000D03*
X139880000Y-102300000D03*
X139880000Y-102300000D03*
X139880000Y-102300000D03*
X158440000Y-84820000D03*
X158440000Y-84820000D03*
X158440000Y-84820000D03*
X158440000Y-84820000D03*
X158440000Y-84820000D03*
X158440000Y-84820000D03*
X158440000Y-84820000D03*
X160330000Y-84820000D03*
X160330000Y-84820000D03*
X160330000Y-84820000D03*
X160330000Y-84820000D03*
X160330000Y-84820000D03*
X160330000Y-84820000D03*
X160330000Y-84820000D03*
X158260000Y-86360000D03*
X158260000Y-86360000D03*
X158260000Y-86360000D03*
X158260000Y-86360000D03*
X158260000Y-86360000D03*
X158260000Y-86360000D03*
X158260000Y-86360000D03*
X160260000Y-86360000D03*
X160260000Y-86360000D03*
X160260000Y-86360000D03*
X160260000Y-86360000D03*
X160260000Y-86360000D03*
X160260000Y-86360000D03*
X160260000Y-86360000D03*
X160260000Y-86360000D03*
X160260000Y-86360000D03*
X160260000Y-86360000D03*
X160260000Y-86360000D03*
X160260000Y-86360000D03*
X160260000Y-86360000D03*
X160260000Y-86360000D03*
X138940000Y-67990000D03*
X138940000Y-67990000D03*
X138940000Y-67990000D03*
X138940000Y-67990000D03*
X138940000Y-67990000D03*
X138940000Y-67990000D03*
X138940000Y-67990000D03*
X136400000Y-67990000D03*
X136400000Y-67990000D03*
X136400000Y-67990000D03*
X136400000Y-67990000D03*
X136400000Y-67990000D03*
X136400000Y-67990000D03*
X136400000Y-67990000D03*
X134860000Y-67990000D03*
X134860000Y-67990000D03*
X134860000Y-67990000D03*
X134860000Y-67990000D03*
X134860000Y-67990000D03*
X134860000Y-67990000D03*
X134860000Y-67990000D03*
X132320000Y-83330000D03*
X132320000Y-83330000D03*
X132320000Y-83330000D03*
X132320000Y-83330000D03*
X132320000Y-83330000D03*
X132320000Y-83330000D03*
X132320000Y-83330000D03*
X134860000Y-85440000D03*
X134860000Y-85440000D03*
X134860000Y-85440000D03*
X134860000Y-85440000D03*
X134860000Y-85440000D03*
X134860000Y-85440000D03*
X134860000Y-85440000D03*
X139770000Y-100600000D03*
X139770000Y-100600000D03*
X139770000Y-100600000D03*
X139770000Y-100600000D03*
X139770000Y-100600000D03*
X139770000Y-100600000D03*
X139770000Y-100600000D03*
X120990000Y-101600000D03*
X120990000Y-101600000D03*
X120990000Y-101600000D03*
X120990000Y-101600000D03*
X120990000Y-101600000D03*
X120990000Y-101600000D03*
X120990000Y-101600000D03*
X117080000Y-96520000D03*
X117080000Y-96520000D03*
X117080000Y-96520000D03*
X117080000Y-96520000D03*
X117080000Y-96520000D03*
X117080000Y-96520000D03*
X117080000Y-96520000D03*
X122440000Y-81280000D03*
X122440000Y-81280000D03*
X122440000Y-81280000D03*
X122440000Y-81280000D03*
X122440000Y-81280000D03*
X122440000Y-81280000D03*
X122440000Y-81280000D03*
X117080000Y-93440000D03*
X117080000Y-93440000D03*
X117080000Y-93440000D03*
X117080000Y-93440000D03*
X117080000Y-93440000D03*
X117080000Y-93440000D03*
X117080000Y-93440000D03*
X114220000Y-93520000D03*
X114220000Y-93520000D03*
X114220000Y-93520000D03*
X114220000Y-93520000D03*
X114220000Y-93520000D03*
X114220000Y-93520000D03*
X114220000Y-93520000D03*
X107660000Y-93980000D03*
X107660000Y-93980000D03*
X107660000Y-93980000D03*
X107660000Y-93980000D03*
X107660000Y-93980000D03*
X107660000Y-93980000D03*
X107660000Y-93980000D03*
X110770000Y-86360000D03*
X110770000Y-86360000D03*
X110770000Y-86360000D03*
X110770000Y-86360000D03*
X110770000Y-86360000D03*
X110770000Y-86360000D03*
X110770000Y-86360000D03*
X115770000Y-83820000D03*
X115770000Y-83820000D03*
X115770000Y-83820000D03*
X115770000Y-83820000D03*
X115770000Y-83820000D03*
X115770000Y-83820000D03*
X115770000Y-83820000D03*
X117620000Y-86360000D03*
X117620000Y-86360000D03*
X117620000Y-86360000D03*
X117620000Y-86360000D03*
X117620000Y-86360000D03*
X117620000Y-86360000D03*
X117620000Y-86360000D03*
%TO.N,+3.3V*%
X150100000Y-110220000D03*
X149000000Y-109220000D03*
X138940000Y-114300000D03*
X138940000Y-111760000D03*
X138700000Y-108220000D03*
X138700000Y-109440000D03*
X135620000Y-109440000D03*
X135800000Y-108110000D03*
X130620000Y-96520000D03*
X137160000Y-114300000D03*
X137160000Y-111760000D03*
X132080000Y-85360000D03*
X128540000Y-73660000D03*
X120920000Y-80900000D03*
X119000000Y-83820000D03*
X116840000Y-87900000D03*
D22*
X110550000Y-96000000D03*
D21*
X110550000Y-97000000D03*
X109330000Y-100600000D03*
X123549500Y-101600000D03*
X133080000Y-68580000D03*
X143320000Y-73660000D03*
D22*
%TO.N,NRST*%
X137160000Y-86360000D03*
X129540000Y-91440000D03*
%TO.N,SWDIO*%
X133880000Y-72920000D03*
X137160000Y-76200000D03*
%TD*%
D23*
%TO.N,NRST*%
X137160000Y-88900000D02*
X137160000Y-86360000D01*
X134620000Y-91440000D02*
X137160000Y-88900000D01*
X129540000Y-91440000D02*
X134620000Y-91440000D01*
%TO.N,SWDIO*%
X137160000Y-76200000D02*
X133880000Y-72920000D01*
%TD*%
M02*
