M48
; DRILL file {KiCad 7.0.2} date Mon May 29 18:27:43 2023
; FORMAT={-:-/ absolute / inch / decimal}
; #@! TF.CreationDate,2023-05-29T18:27:43+05:30
; #@! TF.GenerationSoftware,Kicad,Pcbnew,7.0.2
; #@! TF.FileFunction,Plated,1,2,PTH
FMAT,2
INCH
; #@! TA.AperFunction,Plated,PTH,ViaDrill
T1C0.0079
; #@! TA.AperFunction,Plated,PTH,ViaDrill
T2C0.0118
; #@! TA.AperFunction,Plated,PTH,ComponentDrill
T3C0.0197
; #@! TA.AperFunction,Plated,PTH,ComponentDrill
T4C0.0236
; #@! TA.AperFunction,Plated,PTH,ComponentDrill
T5C0.0354
; #@! TA.AperFunction,Plated,PTH,ComponentDrill
T6C0.0472
; #@! TA.AperFunction,Plated,PTH,ComponentDrill
T7C0.0512
; #@! TA.AperFunction,Plated,PTH,ComponentDrill
T8C0.1693
%
G90
G05
T1
X4.2386Y-3.7
X4.2386Y-3.7
X4.2386Y-3.7
X4.2386Y-3.7
X4.2386Y-3.7
X4.2386Y-3.7
X4.2386Y-3.7
X4.3043Y-3.9606
X4.3173Y-4.1512
X4.3173Y-4.1512
X4.3173Y-4.1512
X4.3173Y-4.1512
X4.3173Y-4.1512
X4.3173Y-4.1512
X4.3173Y-4.1512
X4.3524Y-3.8189
X4.361Y-3.4
X4.361Y-3.4
X4.361Y-3.4
X4.361Y-3.4
X4.361Y-3.4
X4.361Y-3.4
X4.361Y-3.4
X4.4969Y-3.6819
X4.4969Y-3.6819
X4.4969Y-3.6819
X4.4969Y-3.6819
X4.4969Y-3.6819
X4.4969Y-3.6819
X4.4969Y-3.6819
X4.5579Y-3.3
X4.5579Y-3.3
X4.5579Y-3.3
X4.5579Y-3.3
X4.5579Y-3.3
X4.5579Y-3.3
X4.5579Y-3.3
X4.6Y-3.4606
X4.6094Y-3.6787
X4.6094Y-3.6787
X4.6094Y-3.6787
X4.6094Y-3.6787
X4.6094Y-3.6787
X4.6094Y-3.6787
X4.6094Y-3.6787
X4.6094Y-3.8
X4.6094Y-3.8
X4.6094Y-3.8
X4.6094Y-3.8
X4.6094Y-3.8
X4.6094Y-3.8
X4.6094Y-3.8
X4.6307Y-3.4
X4.6307Y-3.4
X4.6307Y-3.4
X4.6307Y-3.4
X4.6307Y-3.4
X4.6307Y-3.4
X4.6307Y-3.4
X4.685Y-3.3
X4.7606Y-3.185
X4.7634Y-4.0
X4.7634Y-4.0
X4.7634Y-4.0
X4.7634Y-4.0
X4.7634Y-4.0
X4.7634Y-4.0
X4.7634Y-4.0
X4.8205Y-3.2
X4.8205Y-3.2
X4.8205Y-3.2
X4.8205Y-3.2
X4.8205Y-3.2
X4.8205Y-3.2
X4.8205Y-3.2
X4.8642Y-4.0
X5.0606Y-2.9
X5.1425Y-3.8
X5.2Y-3.3606
X5.2094Y-3.2807
X5.2094Y-3.2807
X5.2094Y-3.2807
X5.2094Y-3.2807
X5.2094Y-3.2807
X5.2094Y-3.2807
X5.2094Y-3.2807
X5.2394Y-2.7
X5.3094Y-2.6768
X5.3094Y-2.6768
X5.3094Y-2.6768
X5.3094Y-2.6768
X5.3094Y-2.6768
X5.3094Y-2.6768
X5.3094Y-2.6768
X5.3094Y-3.3638
X5.3094Y-3.3638
X5.3094Y-3.3638
X5.3094Y-3.3638
X5.3094Y-3.3638
X5.3094Y-3.3638
X5.3094Y-3.3638
X5.3394Y-4.3087
X5.3465Y-4.2563
X5.3701Y-2.6768
X5.3701Y-2.6768
X5.3701Y-2.6768
X5.3701Y-2.6768
X5.3701Y-2.6768
X5.3701Y-2.6768
X5.3701Y-2.6768
X5.4Y-4.4
X5.4Y-4.5
X5.4606Y-4.2606
X5.4606Y-4.3087
X5.4701Y-2.6768
X5.4701Y-2.6768
X5.4701Y-2.6768
X5.4701Y-2.6768
X5.4701Y-2.6768
X5.4701Y-2.6768
X5.4701Y-2.6768
X5.4701Y-4.4
X5.4701Y-4.5
X5.5028Y-3.9606
X5.5028Y-3.9606
X5.5028Y-3.9606
X5.5028Y-3.9606
X5.5028Y-3.9606
X5.5028Y-3.9606
X5.5028Y-3.9606
X5.5071Y-4.0276
X5.5071Y-4.0276
X5.5071Y-4.0276
X5.5071Y-4.0276
X5.5071Y-4.0276
X5.5071Y-4.0276
X5.5071Y-4.0276
X5.5992Y-4.3787
X5.5992Y-4.3787
X5.5992Y-4.3787
X5.5992Y-4.3787
X5.5992Y-4.3787
X5.5992Y-4.3787
X5.5992Y-4.3787
X5.5992Y-4.4268
X5.5992Y-4.4268
X5.5992Y-4.4268
X5.5992Y-4.4268
X5.5992Y-4.4268
X5.5992Y-4.4268
X5.5992Y-4.4268
X5.5992Y-4.4661
X5.5992Y-4.4661
X5.5992Y-4.4661
X5.5992Y-4.4661
X5.5992Y-4.4661
X5.5992Y-4.4661
X5.5992Y-4.4661
X5.5992Y-4.5272
X5.5992Y-4.5272
X5.5992Y-4.5272
X5.5992Y-4.5272
X5.5992Y-4.5272
X5.5992Y-4.5272
X5.5992Y-4.5272
X5.6425Y-2.9
X5.726Y-4.1008
X5.726Y-4.1008
X5.726Y-4.1008
X5.726Y-4.1008
X5.726Y-4.1008
X5.726Y-4.1008
X5.726Y-4.1008
X5.726Y-4.1606
X5.726Y-4.1606
X5.726Y-4.1606
X5.726Y-4.1606
X5.726Y-4.1606
X5.726Y-4.1606
X5.726Y-4.1606
X5.7433Y-4.1598
X5.7433Y-4.1598
X5.7433Y-4.1598
X5.7433Y-4.1598
X5.7433Y-4.1598
X5.7433Y-4.1598
X5.7433Y-4.1598
X5.8004Y-4.1
X5.8004Y-4.1
X5.8004Y-4.1
X5.8004Y-4.1
X5.8004Y-4.1
X5.8004Y-4.1
X5.8004Y-4.1
X5.8307Y-3.1
X5.8307Y-3.1
X5.8307Y-3.1
X5.8307Y-3.1
X5.8307Y-3.1
X5.8307Y-3.1
X5.8307Y-3.1
X5.8661Y-4.3
X5.8701Y-3.4394
X5.8701Y-3.4394
X5.8701Y-3.4394
X5.8701Y-3.4394
X5.8701Y-3.4394
X5.8701Y-3.4394
X5.8701Y-3.4394
X5.8701Y-3.8669
X5.8701Y-3.8669
X5.8701Y-3.8669
X5.8701Y-3.8669
X5.8701Y-3.8669
X5.8701Y-3.8669
X5.8701Y-3.8669
X5.8705Y-3.9213
X5.8705Y-3.9213
X5.8705Y-3.9213
X5.8705Y-3.9213
X5.8705Y-3.9213
X5.8705Y-3.9213
X5.8705Y-3.9213
X5.9094Y-4.3394
X6.0094Y-4.0787
X6.0094Y-4.0787
X6.0094Y-4.0787
X6.0094Y-4.0787
X6.0094Y-4.0787
X6.0094Y-4.0787
X6.0094Y-4.0787
X6.0323Y-4.1
X6.0323Y-4.1
X6.0323Y-4.1
X6.0323Y-4.1
X6.0323Y-4.1
X6.0323Y-4.1
X6.0323Y-4.1
X6.1094Y-4.2122
X6.1094Y-4.2122
X6.1094Y-4.2122
X6.1094Y-4.2122
X6.1094Y-4.2122
X6.1094Y-4.2122
X6.1094Y-4.2122
X6.1307Y-4.2394
X6.1307Y-4.2394
X6.1307Y-4.2394
X6.1307Y-4.2394
X6.1307Y-4.2394
X6.1307Y-4.2394
X6.1307Y-4.2394
X6.2307Y-3.4
X6.2307Y-3.4
X6.2307Y-3.4
X6.2307Y-3.4
X6.2307Y-3.4
X6.2307Y-3.4
X6.2307Y-3.4
X6.2378Y-3.3394
X6.2378Y-3.3394
X6.2378Y-3.3394
X6.2378Y-3.3394
X6.2378Y-3.3394
X6.2378Y-3.3394
X6.2378Y-3.3394
X6.3094Y-3.4
X6.3094Y-3.4
X6.3094Y-3.4
X6.3094Y-3.4
X6.3094Y-3.4
X6.3094Y-3.4
X6.3094Y-3.4
X6.3094Y-3.4
X6.3094Y-3.4
X6.3094Y-3.4
X6.3094Y-3.4
X6.3094Y-3.4
X6.3094Y-3.4
X6.3094Y-3.4
X6.3122Y-3.3394
X6.3122Y-3.3394
X6.3122Y-3.3394
X6.3122Y-3.3394
X6.3122Y-3.3394
X6.3122Y-3.3394
X6.3122Y-3.3394
X45.2008Y-3.8606
X45.2008Y-3.8606
X45.2008Y-3.8606
X45.2008Y-3.8606
X45.2008Y-3.8606
X45.2008Y-3.8606
X45.2008Y-3.8606
T2
X4.3524Y-3.7795
X5.1Y-3.6
X5.2709Y-2.8709
X5.4Y-3.0
X5.4Y-3.4
T3
X4.8508Y-2.9
X4.9Y-2.9
X4.9016Y-4.5
X4.9492Y-2.9
X4.9508Y-4.5
X4.9984Y-2.9
X5.0Y-4.5
X5.0492Y-4.5
T4
X4.273Y-2.9
X4.273Y-4.6
X4.3102Y-2.8102
X4.3102Y-2.9898
X4.3102Y-4.5102
X4.3102Y-4.6898
X4.4Y-2.773
X4.4Y-3.027
X4.4Y-4.473
X4.4Y-4.727
X4.4898Y-2.8102
X4.4898Y-2.9898
X4.4898Y-4.5102
X4.4898Y-4.6898
X4.527Y-2.9
X4.527Y-4.6
X6.073Y-2.9
X6.073Y-4.6
X6.1102Y-2.8102
X6.1102Y-2.9898
X6.1102Y-4.5102
X6.1102Y-4.6898
X6.2Y-2.773
X6.2Y-3.027
X6.2Y-4.473
X6.2Y-4.727
X6.2898Y-2.8102
X6.2898Y-2.9898
X6.2898Y-4.5102
X6.2898Y-4.6898
X6.327Y-2.9
X6.327Y-4.6
T5
X6.3939Y-3.3622
X6.3939Y-3.4606
X6.3939Y-3.5394
X6.3939Y-3.6378
T6
X6.2Y-3.9622
X6.2Y-4.1
T8
X4.4Y-2.9
X4.4Y-4.6
X6.2Y-2.9
X6.2Y-4.6
T7
G00X6.2057Y-3.5197
M15
G01X6.2057Y-3.4803
M16
G05
G00X6.3506Y-3.2413
M15
G01X6.39Y-3.2413
M16
G05
G00X6.39Y-3.7587
M15
G01X6.3506Y-3.7587
M16
G05
T0
M30
