%TF.GenerationSoftware,KiCad,Pcbnew,7.0.2*%
%TF.CreationDate,2023-05-29T18:28:01+05:30*%
%TF.ProjectId,_autosave-STM32,5f617574-6f73-4617-9665-2d53544d3332,rev?*%
%TF.SameCoordinates,Original*%
%TF.FileFunction,Soldermask,Bot*%
%TF.FilePolarity,Negative*%
%FSLAX46Y46*%
G04 Gerber Fmt 4.6, Leading zero omitted, Abs format (unit mm)*
G04 Created by KiCad (PCBNEW 7.0.2) date 2023-05-29 18:28:01*
%MOMM*%
%LPD*%
G01*
G04 APERTURE LIST*
G04 Aperture macros list*
%AMRoundRect*
0 Rectangle with rounded corners*
0 $1 Rounding radius*
0 $2 $3 $4 $5 $6 $7 $8 $9 X,Y pos of 4 corners*
0 Add a 4 corners polygon primitive as box body*
4,1,4,$2,$3,$4,$5,$6,$7,$8,$9,$2,$3,0*
0 Add four circle primitives for the rounded corners*
1,1,$1+$1,$2,$3*
1,1,$1+$1,$4,$5*
1,1,$1+$1,$6,$7*
1,1,$1+$1,$8,$9*
0 Add four rect primitives between the rounded corners*
20,1,$1+$1,$2,$3,$4,$5,0*
20,1,$1+$1,$4,$5,$6,$7,0*
20,1,$1+$1,$6,$7,$8,$9,0*
20,1,$1+$1,$8,$9,$2,$3,0*%
G04 Aperture macros list end*
%ADD10C,0.900000*%
%ADD11C,8.600000*%
%ADD12R,1.300000X1.300000*%
%ADD13C,1.300000*%
%ADD14O,2.900000X1.900000*%
%ADD15O,1.900000X2.900000*%
%ADD16RoundRect,0.200000X-0.200000X-0.450000X0.200000X-0.450000X0.200000X0.450000X-0.200000X0.450000X0*%
%ADD17O,0.800000X1.300000*%
%ADD18R,2.400000X2.400000*%
%ADD19C,2.400000*%
%ADD20RoundRect,0.200000X0.200000X0.450000X-0.200000X0.450000X-0.200000X-0.450000X0.200000X-0.450000X0*%
G04 APERTURE END LIST*
D10*
%TO.C,H4*%
X108535000Y-73660000D03*
X109479581Y-71379581D03*
X109479581Y-75940419D03*
X111760000Y-70435000D03*
D11*
X111760000Y-73660000D03*
D10*
X111760000Y-76885000D03*
X114040419Y-71379581D03*
X114040419Y-75940419D03*
X114985000Y-73660000D03*
%TD*%
%TO.C,H2*%
X154255000Y-116840000D03*
X155199581Y-114559581D03*
X155199581Y-119120419D03*
X157480000Y-113615000D03*
D11*
X157480000Y-116840000D03*
D10*
X157480000Y-120065000D03*
X159760419Y-114559581D03*
X159760419Y-119120419D03*
X160705000Y-116840000D03*
%TD*%
%TO.C,H1*%
X154255000Y-73660000D03*
X155199581Y-71379581D03*
X155199581Y-75940419D03*
X157480000Y-70435000D03*
D11*
X157480000Y-73660000D03*
D10*
X157480000Y-76885000D03*
X159760419Y-71379581D03*
X159760419Y-75940419D03*
X160705000Y-73660000D03*
%TD*%
D12*
%TO.C,J5*%
X162405000Y-92400000D03*
D13*
X162405000Y-89900000D03*
X162405000Y-87900000D03*
X162405000Y-85400000D03*
D14*
X161805000Y-95470000D03*
D15*
X157625000Y-88900000D03*
D14*
X161805000Y-82330000D03*
%TD*%
D10*
%TO.C,SW1*%
X106680000Y-101600000D03*
X106680000Y-104600000D03*
%TD*%
D16*
%TO.C,J4*%
X124500000Y-114300000D03*
D17*
X125750000Y-114300000D03*
X127000000Y-114300000D03*
X128250000Y-114300000D03*
%TD*%
D10*
%TO.C,H3*%
X108535000Y-116840000D03*
X109479581Y-114559581D03*
X109479581Y-119120419D03*
X111760000Y-113615000D03*
D11*
X111760000Y-116840000D03*
D10*
X111760000Y-120065000D03*
X114040419Y-114559581D03*
X114040419Y-119120419D03*
X114985000Y-116840000D03*
%TD*%
D18*
%TO.C,J1*%
X157480000Y-104140000D03*
D19*
X157480000Y-100640000D03*
%TD*%
D20*
%TO.C,J3*%
X126960000Y-73660000D03*
D17*
X125710000Y-73660000D03*
X124460000Y-73660000D03*
X123210000Y-73660000D03*
%TD*%
M02*
